SplineFontDB: 3.0
FontName: Comme-Medium
FullName: Comme Medium
FamilyName: Comme
Weight: Medium
Copyright: Digitized data Copyright (c) 2011-2014, vernon adams.
Version: 2
ItalicAngle: 0
UnderlinePosition: 0
UnderlineWidth: 0
Ascent: 727
Descent: 273
UFOAscent: 761.719
UFODescent: -271.484
LayerCount: 2
Layer: 0 0 "Back"  1
Layer: 1 0 "Fore"  0
FSType: 0
OS2Version: 0
OS2_WeightWidthSlopeOnly: 0
OS2_UseTypoMetrics: 1
CreationTime: 1394119194
ModificationTime: 1396557493
PfmFamily: 17
TTFWeight: 500
TTFWidth: 5
LineGap: 0
VLineGap: 0
OS2TypoAscent: 1167
OS2TypoAOffset: 0
OS2TypoDescent: -250
OS2TypoDOffset: 0
OS2TypoLinegap: 0
OS2WinAscent: 1167
OS2WinAOffset: 0
OS2WinDescent: 250
OS2WinDOffset: 0
HheadAscent: 1167
HheadAOffset: 0
HheadDescent: -250
HheadDOffset: 0
OS2Vendor: 'NeWT'
Lookup: 4 0 1 "ligaStandardLigatureslookup0"  {"ligaStandardLigatureslookup0 subtable"  } ['liga' ('latn' <'dflt' > 'grek' <'dflt' > 'DFLT' <'dflt' > ) ]
Lookup: 4 0 0 "fracDiagonalFractionslookup11"  {"fracDiagonalFractionslookup11 subtable"  } ['frac' ('latn' <'dflt' 'CAT ' 'MOL ' 'ROM ' 'TRK ' > 'grek' <'dflt' > 'DFLT' <'dflt' > ) ]
Lookup: 6 0 0 "ordnOrdinalslookup12"  {"ordnOrdinalslookup12 contextual 0"  "ordnOrdinalslookup12 contextual 1"  } ['ordn' ('latn' <'dflt' 'CAT ' 'MOL ' 'ROM ' 'TRK ' > 'grek' <'dflt' > 'DFLT' <'dflt' > ) ]
Lookup: 1 0 0 "Single Substitution lookup 3"  {"Single Substitution lookup 3 subtable"  } []
Lookup: 1 0 0 "Single Substitution lookup 4"  {"Single Substitution lookup 4 subtable"  } []
Lookup: 4 0 0 "dligDiscretionaryLigatureslooku"  {"dligDiscretionaryLigatureslooku subtable"  } ['dlig' ('latn' <'dflt' 'CAT ' 'MOL ' 'ROM ' 'TRK ' > 'grek' <'dflt' > 'DFLT' <'dflt' > ) ]
MarkAttachClasses: 1
DEI: 91125
ChainSub2: coverage "ordnOrdinalslookup12 contextual 1"  0 0 0 1
 1 1 0
  Coverage: 3 O o
  BCoverage: 49 zero one two three four five six seven eight nine
 1
  SeqLookup: 0 "Single Substitution lookup 4" 
EndFPST

StartChar: A
Encoding: 33 65 0
Width: 704
VWidth: 0
GlyphClass: 2
Flags: HW
PickledData: "(dp1
S'org.pippin.gimp.org.kernagic'
p2
(dp3
S'lstem'
p4
I0
sS'rstem'
p5
I0
ssS'com.typemytype.robofont.layerData'
p6
(dp7
sS'org.robofab.postScriptHintData'
p8
(dp9
s."
AnchorPoint: "top" 352 711 basechar 0
LayerCount: 2
Fore
SplineSet
290 711 m 257
 30 0 l 257
 142 0 l 257
 219 212 l 257
 484 212 l 257
 562 0 l 257
 675 0 l 257
 414 711 l 257
 290 711 l 257
243 288 m 257
 352 608 l 257
 461 288 l 257
 243 288 l 257
EndSplineSet
Substitution2: "Single Substitution lookup 3 subtable" ordfeminine
EndChar

StartChar: AE
Encoding: 133 198 1
Width: 827
VWidth: 0
GlyphClass: 2
Flags: HW
PickledData: "(dp1
S'org.pippin.gimp.org.kernagic'
p2
(dp3
S'lstem'
p4
I0
sS'rstem'
p5
I0
ssS'com.typemytype.robofont.layerData'
p6
(dp7
sS'org.robofab.postScriptHintData'
p8
(dp9
s."
LayerCount: 2
Fore
SplineSet
399 289 m 257
 232 289 l 257
 399 606 l 257
 399 289 l 257
355 711 m 257
 -36 0 l 257
 81 0 l 257
 196 215 l 257
 399 215 l 257
 399 0 l 257
 794 0 l 257
 799 82 l 257
 498 82 l 257
 498 329 l 257
 762 329 l 257
 762 410 l 257
 498 410 l 257
 498 631 l 257
 786 631 l 257
 791 711 l 257
 355 711 l 257
EndSplineSet
EndChar

StartChar: B
Encoding: 34 66 13
Width: 677
VWidth: 0
GlyphClass: 2
Flags: HW
PickledData: "(dp1
S'org.pippin.gimp.org.kernagic'
p2
(dp3
S'lstem'
p4
I0
sS'rstem'
p5
I0
ssS'com.typemytype.robofont.layerData'
p6
(dp7
sS'org.robofab.postScriptHintData'
p8
(dp9
s."
AnchorPoint: "top" 326 711 basechar 0
LayerCount: 2
Fore
SplineSet
277 -3 m 256
 527 -3 618 62 618 211 c 256
 618 302 575 361 469 385 c 257
 558 413 594 469 594 535 c 256
 594 634 548 715 304 715 c 256
 246 715 177 711 96 702 c 257
 96 5 l 257
 164 -1 224 -3 277 -3 c 256
209 634 m 257
 246 637 280 639 310 639 c 256
 442 639 485 605 485 526 c 256
 485 438 415 418 330 418 c 258
 209 418 l 257
 209 634 l 257
209 344 m 257
 325 344 l 258
 450 344 506 310 506 212 c 256
 506 131 483 77 293 77 c 256
 267 77 238 78 209 80 c 257
 209 344 l 257
EndSplineSet
EndChar

StartChar: C
Encoding: 35 67 14
Width: 715
VWidth: 0
GlyphClass: 2
Flags: HW
PickledData: "(dp1
S'org.pippin.gimp.org.kernagic'
p2
(dp3
S'lstem'
p4
I0
sS'rstem'
p5
I0
ssS'com.typemytype.robofont.layerData'
p6
(dp7
sS'org.robofab.postScriptHintData'
p8
(dp9
s."
AnchorPoint: "top" 389 711 basechar 0
LayerCount: 2
Fore
SplineSet
669 529 m 257
 645 645 534 721 396 721 c 256
 199 721 71 588 71 356 c 256
 71 122 199 -9 396 -9 c 256
 535 -9 646 67 670 183 c 257
 588 214 l 257
 580 214 l 257
 562 137 492 76 401 76 c 256
 274 76 188 165 188 356 c 256
 188 547 272 636 405 636 c 256
 494 636 561 573 578 498 c 257
 587 498 l 257
 669 529 l 257
EndSplineSet
EndChar

StartChar: D
Encoding: 36 68 20
Width: 737
VWidth: 0
GlyphClass: 2
Flags: HW
PickledData: "(dp1
S'org.pippin.gimp.org.kernagic'
p2
(dp3
S'lstem'
p4
I0
sS'rstem'
p5
I0
ssS'com.typemytype.robofont.layerData'
p6
(dp7
sS'com.fontlab.hintData'
p8
(dp9
S'vhints'
p10
((dp11
S'position'
p12
I1280
sS'width'
p13
I122
stp14
sS'hhints'
p15
((dp16
g12
I0
sg13
I94
s(dp17
g12
I1355
sg13
I94
stp18
ssS'org.robofab.postScriptHintData'
p19
(dp20
s."
HStem: 0 46 662 46
VStem: 625 60
AnchorPoint: "top" 369 711 basechar 0
LayerCount: 2
Fore
SplineSet
96 5 m 257
 151 -2 202 -5 248 -5 c 256
 564 -5 667 145 667 365 c 256
 667 583 587 714 279 714 c 256
 225 714 164 710 96 702 c 257
 96 5 l 257
209 78 m 257
 209 631 l 257
 239 634 267 636 292 636 c 256
 511 636 555 527 555 363 c 256
 555 194 498 75 276 75 c 256
 255 75 233 76 209 78 c 257
EndSplineSet
EndChar

StartChar: uni0394
Encoding: 413 916 23
Width: 651
VWidth: 0
Flags: HW
PickledData: "(dp1
S'org.pippin.gimp.org.kernagic'
p2
(dp3
S'lstem'
p4
I0
sS'rstem'
p5
I0
ssS'com.typemytype.robofont.layerData'
p6
(dp7
S'b'
(dp8
S'name'
p9
S'Delta'
p10
sS'lib'
p11
(dp12
sS'unicodes'
p13
(tsS'width'
p14
I1334
sS'contours'
p15
(tsS'components'
p16
(tsS'anchors'
p17
(tsssS'org.robofab.postScriptHintData'
p18
(dp19
s."
LayerCount: 2
Fore
SplineSet
135 80 m 257
 321 630 l 257
 511 80 l 257
 135 80 l 257
19 0 m 257
 627 0 l 257
 367 730 l 257
 276 730 l 257
 19 0 l 257
EndSplineSet
EndChar

StartChar: E
Encoding: 37 69 24
Width: 644
VWidth: 0
GlyphClass: 2
Flags: HW
PickledData: "(dp1
S'org.pippin.gimp.org.kernagic'
p2
(dp3
S'lstem'
p4
I0
sS'rstem'
p5
I0
ssS'com.typemytype.robofont.layerData'
p6
(dp7
sS'org.robofab.postScriptHintData'
p8
(dp9
s."
AnchorPoint: "top" 362 711 basechar 0
LayerCount: 2
Fore
SplineSet
96 711 m 257
 96 0 l 257
 576 0 l 257
 581 83 l 257
 209 83 l 257
 209 326 l 257
 543 326 l 257
 543 408 l 257
 209 408 l 257
 209 629 l 257
 568 629 l 257
 573 711 l 257
 96 711 l 257
EndSplineSet
EndChar

StartChar: Eng
Encoding: 265 330 33
Width: 752
VWidth: 0
GlyphClass: 2
Flags: HW
PickledData: "(dp1
S'org.robofab.postScriptHintData'
p2
(dp3
s."
LayerCount: 2
Fore
SplineSet
556 462 m 257
 556 -2 l 258
 556 -107 535 -142 369 -142 c 257
 372 -219 l 257
 579 -217 659 -166 659 -8 c 258
 659 462 l 257
 556 462 l 257
EndSplineSet
Refer: 69 78 N 1 0 0 1 0 0 2
EndChar

StartChar: Euro
Encoding: 461 8364 36
Width: 679
VWidth: 0
GlyphClass: 2
Flags: HW
PickledData: "(dp1
S'org.pippin.gimp.org.kernagic'
p2
(dp3
S'lstem'
p4
I0
sS'rstem'
p5
I0
ssS'com.typemytype.robofont.layerData'
p6
(dp7
S'b'
(dp8
S'name'
p9
S'Euro'
p10
sS'lib'
p11
(dp12
sS'unicodes'
p13
(tsS'width'
p14
I1391
sS'contours'
p15
(tsS'components'
p16
(tsS'anchors'
p17
(tsssS'org.robofab.postScriptHintData'
p18
(dp19
s."
LayerCount: 2
Fore
SplineSet
-29 258 m 257
 394 258 l 257
 396 317 l 257
 110 317 l 257
 110 397 l 257
 396 397 l 257
 399 457 l 257
 -25 457 l 257
 -27 397 l 257
 56 397 l 257
 56 317 l 257
 -27 317 l 257
 -29 258 l 257
EndSplineSet
Refer: 14 67 N 1 0 0 1 -33 0 2
EndChar

StartChar: F
Encoding: 38 70 37
Width: 595
VWidth: 0
GlyphClass: 2
Flags: HW
PickledData: "(dp1
S'org.pippin.gimp.org.kernagic'
p2
(dp3
S'lstem'
p4
I0
sS'rstem'
p5
I705
ssS'com.typemytype.robofont.layerData'
p6
(dp7
sS'org.robofab.postScriptHintData'
p8
(dp9
s."
AnchorPoint: "top" 359 711 basechar 0
LayerCount: 2
Fore
SplineSet
96 711 m 257
 96 0 l 257
 209 0 l 257
 209 315 l 257
 529 315 l 257
 529 395 l 257
 209 395 l 257
 209 627 l 257
 567 627 l 257
 573 711 l 257
 96 711 l 257
EndSplineSet
EndChar

StartChar: G
Encoding: 39 71 38
Width: 732
VWidth: 0
GlyphClass: 2
Flags: HW
PickledData: "(dp1
S'org.pippin.gimp.org.kernagic'
p2
(dp3
S'lstem'
p4
I0
sS'rstem'
p5
I0
ssS'com.typemytype.robofont.layerData'
p6
(dp7
sS'org.robofab.postScriptHintData'
p8
(dp9
s."
AnchorPoint: "top" 394 711 basechar 0
LayerCount: 2
Fore
SplineSet
403 -10 m 256
 505 -10 589 7 662 37 c 257
 662 381 l 257
 409 381 l 257
 405 307 l 257
 562 296 l 257
 562 95 l 257
 529 85 483 75 422 75 c 256
 258 75 188 176 188 359 c 256
 188 530 266 636 419 636 c 256
 507 636 563 594 592 556 c 257
 602 556 l 257
 664 611 l 257
 622 674 535 721 414 721 c 256
 199 721 71 581 71 358 c 256
 71 136 184 -10 403 -10 c 256
EndSplineSet
EndChar

StartChar: H
Encoding: 40 72 44
Width: 756
VWidth: 0
GlyphClass: 2
Flags: HWO
PickledData: "(dp1
S'org.pippin.gimp.org.kernagic'
p2
(dp3
S'lstem'
p4
I0
sS'rstem'
p5
I0
ssS'com.typemytype.robofont.layerData'
p6
(dp7
sS'org.robofab.postScriptHintData'
p8
(dp9
s."
AnchorPoint: "top" 384 711 basechar 0
LayerCount: 2
Fore
SplineSet
546 323 m 257
 546 -1 l 257
 659 -1 l 257
 659 711 l 257
 546 711 l 257
 546 407 l 257
 209 407 l 257
 209 711 l 257
 97 711 l 257
 97 -1 l 257
 209 -1 l 257
 209 323 l 257
 546 323 l 257
EndSplineSet
EndChar

StartChar: Hbar
Encoding: 229 294 45
Width: 735
VWidth: 0
GlyphClass: 2
Flags: HW
PickledData: "(dp1
S'org.pippin.gimp.org.kernagic'
p2
(dp3
S'lstem'
p4
I0
sS'rstem'
p5
I0
ssS'com.typemytype.robofont.layerData'
p6
(dp7
sS'org.robofab.postScriptHintData'
p8
(dp9
s."
LayerCount: 2
Fore
SplineSet
31 626 m 257
 31 558 l 257
 701 558 l 257
 701 626 l 257
 31 626 l 257
EndSplineSet
Refer: 44 72 N 1 0 0 1 0 0 2
EndChar

StartChar: I
Encoding: 41 73 47
Width: 482
VWidth: 0
GlyphClass: 2
Flags: HW
PickledData: "(dp1
S'org.pippin.gimp.org.kernagic'
p2
(dp3
S'lstem'
p4
I0
sS'rstem'
p5
I0
ssS'com.typemytype.robofont.layerData'
p6
(dp7
sS'com.fontlab.hintData'
p8
(dp9
S'vhints'
p10
((dp11
S'position'
p12
I111
sS'width'
p13
I529
stp14
sS'hhints'
p15
((dp16
g12
I0
sg13
I86
s(dp17
g12
I1363
sg13
I86
stp18
ssS'org.robofab.postScriptHintData'
p19
(dp20
s."
HStem: 0 42 666 42
VStem: 54 258
AnchorPoint: "top" 240 711 basechar 0
LayerCount: 2
Fore
SplineSet
86 711 m 257
 86 645 l 257
 184 645 l 257
 184 65 l 257
 86 65 l 257
 86 -1 l 257
 393 -1 l 257
 393 65 l 257
 297 65 l 257
 297 645 l 257
 393 645 l 257
 393 711 l 257
 86 711 l 257
EndSplineSet
EndChar

StartChar: J
Encoding: 42 74 58
Width: 391
VWidth: 0
GlyphClass: 2
Flags: HW
PickledData: "(dp1
S'org.pippin.gimp.org.kernagic'
p2
(dp3
S'lstem'
p4
I132
sS'rstem'
p5
I0
ssS'com.typemytype.robofont.layerData'
p6
(dp7
sS'org.robofab.postScriptHintData'
p8
(dp9
s."
AnchorPoint: "top" 229 711 basechar 0
LayerCount: 2
Fore
SplineSet
170 711 m 257
 170 39 l 258
 170 -65 167 -81 115 -103 c 257
 48 -132 l 257
 84 -218 l 257
 136 -198 l 257
 269 -147 283 -111 283 38 c 258
 283 711 l 257
 170 711 l 257
EndSplineSet
EndChar

StartChar: K
Encoding: 43 75 60
Width: 657
VWidth: 0
GlyphClass: 2
Flags: HW
PickledData: "(dp1
S'org.pippin.gimp.org.kernagic'
p2
(dp3
S'lstem'
p4
I0
sS'rstem'
p5
I851
ssS'com.typemytype.robofont.layerData'
p6
(dp7
sS'org.robofab.postScriptHintData'
p8
(dp9
s."
AnchorPoint: "top" 345 711 basechar 0
LayerCount: 2
Fore
SplineSet
642 711 m 257
 519 711 l 257
 209 385 l 257
 209 711 l 257
 96 711 l 257
 96 0 l 257
 209 0 l 257
 209 277 l 257
 275 344 l 257
 536 0 l 257
 662 0 l 257
 662 8 l 257
 359 404 l 257
 642 703 l 257
 642 711 l 257
EndSplineSet
EndChar

StartChar: L
Encoding: 44 76 62
Width: 548
VWidth: 0
GlyphClass: 2
Flags: HW
PickledData: "(dp1
S'org.pippin.gimp.org.kernagic'
p2
(dp3
S'lstem'
p4
I0
sS'rstem'
p5
I597
ssS'com.typemytype.robofont.layerData'
p6
(dp7
sS'org.robofab.postScriptHintData'
p8
(dp9
s."
AnchorPoint: "top" 209 711 basechar 0
LayerCount: 2
Fore
SplineSet
96 711 m 257
 96 0 l 257
 542 0 l 257
 546 81 l 257
 209 81 l 257
 209 711 l 257
 96 711 l 257
EndSplineSet
EndChar

StartChar: M
Encoding: 45 77 68
Width: 895
VWidth: 0
GlyphClass: 2
Flags: HW
PickledData: "(dp1
S'org.pippin.gimp.org.kernagic'
p2
(dp3
S'lstem'
p4
I0
sS'rstem'
p5
I0
ssS'com.fontlab.hintData'
p6
(dp7
S'vhints'
p8
((dp9
S'position'
p10
I185
sS'width'
p11
I166
s(dp12
g10
I214
sg11
I151
s(dp13
g10
I332
sg11
I33
s(dp14
g10
I1463
sg11
I149
s(dp15
g10
I1463
sg11
I39
s(dp16
g10
I1477
sg11
I164
stp17
ssS'com.typemytype.robofont.guides'
p18
((dp19
S'y'
I378
sS'x'
I548
sS'magnetic'
p20
I5
sS'angle'
p21
I0
sS'isGlobal'
p22
I00
stp23
sS'com.typemytype.robofont.layerData'
p24
(dp25
sS'org.robofab.postScriptHintData'
p26
(dp27
s."
VStem: 90 81 104 74 162 16 714 73 714 19 721 80
AnchorPoint: "top" 453 711 basechar 0
LayerCount: 2
Fore
SplineSet
86 -1 m 257
 193 -1 l 257
 193 241 l 257
 197 556 l 257
 405 91 l 257
 489 91 l 257
 699 552 l 257
 703 243 l 257
 703 -1 l 257
 809 -1 l 257
 809 250 l 257
 797 711 l 257
 672 711 l 257
 449 220 l 257
 226 711 l 257
 98 711 l 257
 86 249 l 257
 86 -1 l 257
EndSplineSet
EndChar

StartChar: N
Encoding: 46 78 69
Width: 755
VWidth: 0
GlyphClass: 2
Flags: HW
PickledData: "(dp1
S'org.pippin.gimp.org.kernagic'
p2
(dp3
S'lstem'
p4
I0
sS'rstem'
p5
I0
ssS'com.typemytype.robofont.layerData'
p6
(dp7
sS'org.robofab.postScriptHintData'
p8
(dp9
s."
AnchorPoint: "top" 382 711 basechar 0
LayerCount: 2
Fore
SplineSet
556 711 m 257
 556 349 l 257
 562 149 l 257
 207 711 l 257
 96 711 l 257
 96 0 l 257
 201 0 l 257
 201 341 l 257
 193 553 l 257
 544 0 l 257
 659 0 l 257
 659 711 l 257
 556 711 l 257
EndSplineSet
EndChar

StartChar: O
Encoding: 47 79 74
Width: 794
VWidth: 0
GlyphClass: 2
Flags: HW
PickledData: "(dp1
S'org.pippin.gimp.org.kernagic'
p2
(dp3
S'lstem'
p4
I0
sS'rstem'
p5
I0
ssS'com.fontlab.hintData'
p6
(dp7
S'vhints'
p8
((dp9
S'position'
p10
I150
sS'width'
p11
I122
s(dp12
g10
I1390
sg11
I122
stp13
sS'hhints'
p14
((dp15
g10
I-19
sg11
I96
s(dp16
g10
I1372
sg11
I96
stp17
ssS'com.typemytype.robofont.guides'
p18
(tsS'com.typemytype.robofont.layerData'
p19
(dp20
sS'org.robofab.postScriptHintData'
p21
(dp22
s."
HStem: -9 47 670 47
VStem: 73 60 679 60
AnchorPoint: "top" 398 711 basechar 0
LayerCount: 2
Fore
SplineSet
606 352 m 256
 606 185 549 77 398 77 c 256
 247 77 189 185 189 352 c 256
 189 524 252 634 399 634 c 256
 547 634 606 523 606 352 c 256
72 353 m 256
 72 129 179 -10 399 -10 c 256
 617 -10 723 131 723 352 c 256
 723 580 612 721 399 721 c 256
 183 721 72 581 72 353 c 256
EndSplineSet
Substitution2: "Single Substitution lookup 4 subtable" ordmasculine
EndChar

StartChar: OE
Encoding: 273 338 75
Width: 1137
VWidth: 0
GlyphClass: 2
Flags: HW
PickledData: "(dp1
S'org.pippin.gimp.org.kernagic'
p2
(dp3
S'lstem'
p4
I0
sS'rstem'
p5
I0
ssS'com.typemytype.robofont.layerData'
p6
(dp7
S'b'
(dp8
S'name'
p9
S'OE'
p10
sS'lib'
p11
(dp12
sS'unicodes'
p13
(tsS'width'
p14
I2367
sS'contours'
p15
(tsS'components'
p16
(tsS'anchors'
p17
(tsssS'org.robofab.postScriptHintData'
p18
(dp19
s."
LayerCount: 2
Fore
SplineSet
596 353 m 256
 596 187 538 76 382 76 c 256
 226 76 168 187 168 353 c 256
 168 525 231 637 383 637 c 256
 536 637 596 525 596 353 c 256
62 353 m 256
 62 128 168 -9 383 -9 c 256
 479 -9 550 21 596 76 c 257
 596 0 l 257
 1067 0 l 257
 1072 82 l 257
 698 82 l 257
 698 327 l 257
 1035 327 l 257
 1035 407 l 257
 698 407 l 257
 698 631 l 257
 1059 631 l 257
 1064 711 l 257
 596 711 l 257
 596 633 l 257
 550 690 477 722 383 722 c 256
 171 722 62 582 62 353 c 256
EndSplineSet
EndChar

StartChar: Oslash
Encoding: 151 216 83
Width: 795
VWidth: 0
GlyphClass: 2
Flags: HW
PickledData: "(dp1
S'org.pippin.gimp.org.kernagic'
p2
(dp3
S'lstem'
p4
I0
sS'rstem'
p5
I0
ssS'com.typemytype.robofont.layerData'
p6
(dp7
sS'org.robofab.postScriptHintData'
p8
(dp9
s."
AnchorPoint: "top" 399 711 basechar 0
LayerCount: 2
Fore
SplineSet
398 77 m 256
 375 77 355 79 336 84 c 257
 528 588 l 257
 583 541 606 458 606 352 c 256
 606 185 549 77 398 77 c 256
285 110 m 257
 217 152 189 239 189 352 c 256
 189 524 252 634 399 634 c 256
 429 634 455 629 478 621 c 257
 285 110 l 257
257 -123 m 257
 304 0 l 257
 333 -7 364 -10 399 -10 c 256
 617 -10 723 131 723 352 c 256
 723 510 669 626 565 683 c 257
 612 808 l 257
 557 830 l 257
 510 705 l 257
 477 716 440 721 399 721 c 256
 183 721 72 581 72 353 c 256
 72 187 131 68 250 17 c 257
 204 -104 l 257
 257 -123 l 257
EndSplineSet
EndChar

StartChar: P
Encoding: 48 80 86
Width: 652
VWidth: 0
GlyphClass: 2
Flags: HW
PickledData: "(dp1
S'org.pippin.gimp.org.kernagic'
p2
(dp3
S'lstem'
p4
I0
sS'rstem'
p5
I807
ssS'com.typemytype.robofont.layerData'
p6
(dp7
sS'org.robofab.postScriptHintData'
p8
(dp9
s."
AnchorPoint: "top" 342 711 basechar 0
LayerCount: 2
Fore
SplineSet
96 702 m 257
 96 0 l 257
 209 0 l 257
 209 297 l 257
 244 294 276 293 306 293 c 256
 550 293 609 384 609 514 c 256
 609 649 534 715 303 715 c 256
 244 715 176 710 96 702 c 257
209 375 m 257
 209 633 l 257
 248 636 282 638 312 638 c 256
 472 638 504 590 504 510 c 256
 504 425 472 371 301 371 c 256
 274 371 243 372 209 375 c 257
EndSplineSet
EndChar

StartChar: Q
Encoding: 49 81 87
Width: 786
VWidth: 0
GlyphClass: 2
Flags: HW
PickledData: "(dp1
S'org.pippin.gimp.org.kernagic'
p2
(dp3
S'lstem'
p4
I0
sS'rstem'
p5
I0
ssS'com.typemytype.robofont.layerData'
p6
(dp7
sS'org.robofab.postScriptHintData'
p8
(dp9
s."
LayerCount: 2
Fore
SplineSet
395 23 m 257
 399 9 556 -207 577 -225 c 257
 649 -170 l 257
 628 -152 505 20 493 39 c 257
 395 23 l 257
EndSplineSet
Refer: 74 79 N 1 0 0 1 0 0 2
EndChar

StartChar: R
Encoding: 50 82 88
Width: 669
VWidth: 0
GlyphClass: 2
Flags: HW
PickledData: "(dp1
S'org.pippin.gimp.org.kernagic'
p2
(dp3
S'lstem'
p4
I0
sS'rstem'
p5
I839
ssS'com.typemytype.robofont.layerData'
p6
(dp7
sS'com.fontlab.hintData'
p8
(dp9
S'vhints'
p10
((dp11
S'position'
p12
I1122
sS'width'
p13
I117
stp14
sS'hhints'
p15
((dp16
g12
I722
sg13
I96
s(dp17
g12
I1355
sg13
I94
stp18
ssS'org.robofab.postScriptHintData'
p19
(dp20
s."
HStem: 353 47 662 46
VStem: 548 57
AnchorPoint: "top" 351 711 basechar 0
LayerCount: 2
Fore
SplineSet
616 519 m 256
 616 662 540 716 329 716 c 256
 265 716 187 711 96 702 c 257
 96 0 l 257
 209 0 l 257
 209 318 l 257
 356 318 l 257
 518 0 l 257
 639 0 l 257
 639 9 l 257
 469 332 l 257
 556 355 616 409 616 519 c 256
209 631 m 257
 256 635 297 637 331 637 c 256
 474 637 513 601 513 520 c 256
 513 428 475 392 328 392 c 258
 209 392 l 257
 209 631 l 257
EndSplineSet
EndChar

StartChar: S
Encoding: 51 83 92
Width: 597
VWidth: 0
GlyphClass: 2
Flags: HW
PickledData: "(dp1
S'org.pippin.gimp.org.kernagic'
p2
(dp3
S'lstem'
p4
I185
sS'rstem'
p5
I826
ssS'com.typemytype.robofont.guides'
p6
((dp7
S'y'
I973
sS'x'
I1035
sS'magnetic'
p8
I5
sS'angle'
p9
F90
sS'isGlobal'
p10
I00
s(dp11
S'y'
I382
sS'x'
I75
sg8
I5
sg9
F90
sg10
I00
stp12
sS'com.typemytype.robofont.layerData'
p13
(dp14
sS'org.robofab.postScriptHintData'
p15
(dp16
s."
AnchorPoint: "top" 303 718 basechar 0
LayerCount: 2
Fore
SplineSet
433 189 m 256
 433 107 373 77 292 77 c 256
 230 77 166 103 124 146 c 257
 115 146 l 257
 51 90 l 257
 91 39 175 -10 294 -10 c 256
 419 -10 542 44 542 190 c 256
 542 316 475 354 362 399 c 258
 266 438 l 257
 191 469 167 486 167 539 c 256
 167 614 229 637 301 637 c 256
 365 637 424 612 457 568 c 257
 465 568 l 257
 530 621 l 257
 487 678 405 721 301 721 c 256
 172 721 55 676 55 525 c 256
 55 424 111 391 205 352 c 257
 306 310 l 258
 404 269 433 250 433 189 c 256
EndSplineSet
EndChar

StartChar: T
Encoding: 52 84 98
Width: 573
VWidth: 0
GlyphClass: 2
Flags: HW
PickledData: "(dp1
S'org.pippin.gimp.org.kernagic'
p2
(dp3
S'lstem'
p4
I285
sS'rstem'
p5
I844
ssS'com.typemytype.robofont.layerData'
p6
(dp7
sS'org.robofab.postScriptHintData'
p8
(dp9
s."
AnchorPoint: "top" 289 711 basechar 0
LayerCount: 2
Fore
SplineSet
6 711 m 257
 6 630 l 257
 230 630 l 257
 230 -1 l 257
 343 -1 l 257
 343 630 l 257
 567 630 l 257
 567 711 l 257
 6 711 l 257
EndSplineSet
EndChar

StartChar: Thorn
Encoding: 157 222 103
Width: 616
VWidth: 0
GlyphClass: 2
Flags: HW
PickledData: "(dp1
S'org.pippin.gimp.org.kernagic'
p2
(dp3
S'lstem'
p4
I0
sS'rstem'
p5
I0
ssS'com.typemytype.robofont.layerData'
p6
(dp7
S'b'
(dp8
S'name'
p9
S'Thorn'
p10
sS'lib'
p11
(dp12
sS'unicodes'
p13
(tsS'width'
p14
I1192
sS'contours'
p15
(tsS'components'
p16
(tsS'anchors'
p17
(tsssS'org.robofab.postScriptHintData'
p18
(dp19
s."
LayerCount: 2
Fore
SplineSet
91 0 m 257
 204 0 l 257
 204 207 l 257
 289 207 l 258
 477 207 544 276 544 407 c 256
 544 539 452 585 284 585 c 258
 204 585 l 257
 204 726 l 257
 91 726 l 257
 91 0 l 257
204 508 m 257
 286 508 l 258
 390 508 433 481 433 404 c 256
 433 319 398 286 280 286 c 258
 204 286 l 257
 204 508 l 257
EndSplineSet
EndChar

StartChar: U
Encoding: 53 85 104
Width: 717
VWidth: 0
GlyphClass: 2
Flags: HW
PickledData: "(dp1
S'org.pippin.gimp.org.kernagic'
p2
(dp3
S'lstem'
p4
I0
sS'rstem'
p5
I0
ssS'com.typemytype.robofont.layerData'
p6
(dp7
sS'org.robofab.postScriptHintData'
p8
(dp9
s."
AnchorPoint: "top" 362 711 basechar 0
LayerCount: 2
Fore
SplineSet
522 711 m 257
 522 268 l 258
 522 142 472 77 357 77 c 256
 240 77 193 142 193 268 c 258
 193 711 l 257
 81 711 l 257
 81 264 l 258
 81 100 165 -10 357 -10 c 256
 547 -10 635 102 635 263 c 258
 635 711 l 257
 522 711 l 257
EndSplineSet
EndChar

StartChar: V
Encoding: 54 86 115
Width: 697
VWidth: 0
GlyphClass: 2
Flags: HW
PickledData: "(dp1
S'org.pippin.gimp.org.kernagic'
p2
(dp3
S'lstem'
p4
I0
sS'rstem'
p5
I0
ssS'com.typemytype.robofont.layerData'
p6
(dp7
sS'org.robofab.postScriptHintData'
p8
(dp9
s."
LayerCount: 2
Fore
SplineSet
289 -1 m 257
 400 -1 l 257
 667 711 l 257
 551 711 l 257
 483 512 411 316 346 114 c 257
 282 316 212 512 144 711 c 257
 31 711 l 257
 289 -1 l 257
EndSplineSet
EndChar

StartChar: W
Encoding: 55 87 116
Width: 973
VWidth: 0
GlyphClass: 2
Flags: HW
PickledData: "(dp1
S'org.pippin.gimp.org.kernagic'
p2
(dp3
S'lstem'
p4
I0
sS'rstem'
p5
I0
ssS'com.typemytype.robofont.layerData'
p6
(dp7
sS'org.robofab.postScriptHintData'
p8
(dp9
s."
AnchorPoint: "top" 491 711 basechar 0
LayerCount: 2
Fore
SplineSet
490 561 m 257
 647 0 l 257
 753 0 l 257
 938 711 l 257
 829 711 l 257
 698 144 l 257
 540 699 l 257
 439 699 l 257
 280 148 l 257
 139 711 l 257
 35 711 l 257
 220 0 l 257
 326 0 l 257
 490 561 l 257
EndSplineSet
EndChar

StartChar: X
Encoding: 56 88 121
Width: 643
VWidth: 0
GlyphClass: 2
Flags: HW
PickledData: "(dp1
S'org.pippin.gimp.org.kernagic'
p2
(dp3
S'lstem'
p4
I0
sS'rstem'
p5
I0
ssS'com.typemytype.robofont.layerData'
p6
(dp7
sS'org.robofab.postScriptHintData'
p8
(dp9
s."
LayerCount: 2
Fore
SplineSet
384 357 m 257
 617 711 l 257
 496 711 l 257
 326 446 l 257
 149 711 l 257
 25 711 l 257
 255 363 l 257
 17 -1 l 257
 133 -1 l 257
 315 273 l 257
 497 -1 l 257
 623 -1 l 257
 384 357 l 257
EndSplineSet
EndChar

StartChar: Y
Encoding: 57 89 122
Width: 664
VWidth: 0
GlyphClass: 2
Flags: HW
PickledData: "(dp1
S'org.pippin.gimp.org.kernagic'
p2
(dp3
S'lstem'
p4
I0
sS'rstem'
p5
I0
ssS'com.typemytype.robofont.layerData'
p6
(dp7
sS'org.robofab.postScriptHintData'
p8
(dp9
s."
AnchorPoint: "top" 333 711 basechar 0
LayerCount: 2
Fore
SplineSet
390 257 m 257
 635 711 l 257
 520 711 l 257
 333 358 l 257
 141 711 l 257
 30 711 l 257
 276 258 l 257
 276 0 l 257
 390 0 l 257
 390 257 l 257
EndSplineSet
EndChar

StartChar: Z
Encoding: 58 90 127
Width: 588
VWidth: 0
GlyphClass: 2
Flags: HW
PickledData: "(dp1
S'org.pippin.gimp.org.kernagic'
p2
(dp3
S'lstem'
p4
I0
sS'rstem'
p5
I0
ssS'com.typemytype.robofont.layerData'
p6
(dp7
sS'org.robofab.postScriptHintData'
p8
(dp9
s."
AnchorPoint: "top" 323 711 basechar 0
LayerCount: 2
Fore
SplineSet
46 0 m 257
 555 0 l 257
 556 81 l 257
 177 81 l 257
 551 639 l 257
 549 711 l 257
 59 711 l 257
 62 631 l 257
 426 631 l 257
 46 71 l 257
 46 0 l 257
EndSplineSet
EndChar

StartChar: a
Encoding: 65 97 131
Width: 551
VWidth: 0
GlyphClass: 2
Flags: HW
PickledData: "(dp1
S'org.pippin.gimp.org.kernagic'
p2
(dp3
S'lstem'
p4
I0
sS'rstem'
p5
I0
ssS'com.fontlab.hintData'
p6
(dp7
S'vhints'
p8
((dp9
S'position'
p10
I126
sS'width'
p11
I120
s(dp12
g10
I842
sg11
I32
s(dp13
g10
I875
sg11
I86
stp14
sS'hhints'
p15
((dp16
g10
I-15
sg11
I92
s(dp17
g10
I535
sg11
I82
s(dp18
g10
I983
sg11
I92
stp19
ssS'com.typemytype.robofont.guides'
p20
(tsS'com.typemytype.robofont.layerData'
p21
(dp22
sS'org.robofab.postScriptHintData'
p23
(dp24
s."
HStem: -7 45 261 40 480 45
VStem: 62 59 411 16 427 42
AnchorPoint: "top" 274 529 basechar 0
LayerCount: 2
Fore
SplineSet
241 60 m 256
 192 60 151 84 151 145 c 256
 151 206 190 233 288 233 c 258
 376 233 l 257
 376 123 l 257
 346 87 302 60 241 60 c 256
52 145 m 256
 52 41 121 -9 222 -9 c 256
 296 -9 347 15 388 62 c 257
 396 0 l 257
 481 0 l 257
 481 337 l 258
 481 484 395 540 275 540 c 256
 204 540 129 523 71 488 c 257
 98 414 l 257
 150 446 218 461 267 461 c 256
 339 461 376 429 376 350 c 258
 376 293 l 257
 272 295 l 257
 268 295 l 258
 129 295 52 246 52 145 c 256
EndSplineSet
Substitution2: "Single Substitution lookup 3 subtable" ordfeminine
EndChar

StartChar: acute
Encoding: 115 180 135
Width: 363
VWidth: 0
GlyphClass: 4
Flags: HW
PickledData: "(dp1
S'org.robofab.postScriptHintData'
p2
(dp3
sS'com.typemytype.robofont.layerData'
p4
(dp5
s."
AnchorPoint: "top" 188 528 mark 0
LayerCount: 2
Fore
SplineSet
152 590 m 257
 219 590 l 257
 369 777 l 257
 246 777 l 257
 152 590 l 257
EndSplineSet
EndChar

StartChar: ae
Encoding: 165 230 137
Width: 818
VWidth: 0
GlyphClass: 2
Flags: HW
PickledData: "(dp1
S'org.pippin.gimp.org.kernagic'
p2
(dp3
S'lstem'
p4
I0
sS'rstem'
p5
I0
ssS'com.typemytype.robofont.layerData'
p6
(dp7
sS'com.fontlab.hintData'
p8
(dp9
S'vhints'
p10
((dp11
S'position'
p12
I126
sS'width'
p13
I119
s(dp14
g12
I817
sg13
I117
s(dp15
g12
I817
sg13
I82
s(dp16
g12
I1556
sg13
I98
stp17
sS'hhints'
p18
((dp19
g12
I-14
sg13
I98
s(dp20
g12
I518
sg13
I82
s(dp21
g12
I983
sg13
I92
stp22
ssS'org.robofab.postScriptHintData'
p23
(dp24
s."
HStem: -7 48 253 40 480 45
VStem: 62 58 399 57 399 40 760 48
AnchorPoint: "top" 473 528 basechar 0
LayerCount: 2
Fore
SplineSet
597 464 m 256
 672 464 697 422 697 371 c 256
 697 330 682 293 540 293 c 256
 516 293 488 295 455 297 c 257
 462 412 516 464 597 464 c 256
361 167 m 257
 357 102 303 60 223 60 c 256
 181 60 129 81 129 145 c 256
 129 206 159 245 257 245 c 256
 274 245 326 242 357 239 c 257
 357 235 359 172 361 167 c 257
783 373 m 256
 783 460 721 538 595 538 c 256
 518 538 457 509 419 442 c 257
 398 510 338 538 253 538 c 256
 171 538 107 516 42 475 c 257
 76 410 l 257
 137 447 200 460 249 460 c 256
 321 460 357 431 357 348 c 258
 357 301 l 257
 324 305 260 306 241 306 c 256
 99 306 31 247 31 145 c 256
 31 44 96 -6 191 -9 c 257
 276 -9 361 18 404 94 c 257
 441 28 506 -10 600 -10 c 256
 677 -10 743 13 786 45 c 257
 760 111 l 257
 717 86 674 65 612 65 c 256
 528 65 463 103 454 229 c 257
 488 227 520 226 551 226 c 256
 686 226 783 252 783 373 c 256
EndSplineSet
EndChar

StartChar: ampersand
Encoding: 6 38 142
Width: 693
VWidth: 0
GlyphClass: 2
Flags: HW
PickledData: "(dp1
S'org.pippin.gimp.org.kernagic'
p2
(dp3
S'lstem'
p4
I0
sS'rstem'
p5
I0
ssS'com.typemytype.robofont.layerData'
p6
(dp7
sS'com.fontlab.hintData'
p8
(dp9
S'vhints'
p10
((dp11
S'position'
p12
I135
sS'width'
p13
I121
s(dp14
g12
I312
sg13
I105
s(dp15
g12
I917
sg13
I110
stp16
sS'hhints'
p17
((dp18
g12
I-19
sg13
I96
s(dp19
g12
I1372
sg13
I96
stp20
ssS'org.robofab.postScriptHintData'
p21
(dp22
s."
HStem: -9 47 670 47
VStem: 66 59 152 51 448 54
LayerCount: 2
Fore
SplineSet
298 660 m 256
 356 660 389 629 389 574 c 256
 389 507 328 465 264 431 c 257
 213 492 197 528 197 573 c 256
 197 627 241 660 298 660 c 256
46 197 m 256
 46 71 136 -9 275 -9 c 256
 368 -9 439 28 495 80 c 257
 585 -12 l 257
 642 42 l 257
 547 138 l 257
 597 203 633 277 662 333 c 257
 601 374 l 257
 561 298 527 239 493 194 c 257
 309 380 l 257
 392 425 476 480 476 577 c 256
 476 681 393 729 296 729 c 256
 192 729 110 667 110 568 c 256
 110 506 140 450 194 394 c 257
 108 348 46 298 46 197 c 256
285 67 m 256
 193 67 139 116 139 199 c 256
 139 268 184 309 241 339 c 257
 441 135 l 257
 391 87 343 67 285 67 c 256
EndSplineSet
EndChar

StartChar: uni02BC
Encoding: 65536 700 144
Width: 315
VWidth: 0
Flags: HW
PickledData: "(dp1
S'org.robofab.postScriptHintData'
p2
(dp3
sS'com.typemytype.robofont.layerData'
p4
(dp5
s."
LayerCount: 2
Fore
SplineSet
50 558 m 257
 129 558 l 257
 129 558 172 721 182 774 c 257
 80 774 l 257
 77 747 50 558 50 558 c 257
EndSplineSet
EndChar

StartChar: approxequal
Encoding: 477 8776 145
Width: 576
VWidth: 0
GlyphClass: 2
Flags: HW
PickledData: "(dp1
S'org.pippin.gimp.org.kernagic'
p2
(dp3
S'lstem'
p4
I0
sS'rstem'
p5
I0
ssS'com.typemytype.robofont.layerData'
p6
(dp7
S'b'
(dp8
S'name'
p9
S'approxequal'
p10
sS'lib'
p11
(dp12
sS'unicodes'
p13
(tsS'width'
p14
I1136
sS'contours'
p15
(tsS'components'
p16
(tsS'anchors'
p17
(tsssS'org.robofab.postScriptHintData'
p18
(dp19
s."
LayerCount: 2
Fore
SplineSet
77 198 m 257
 96 243 131 277 173 277 c 256
 205 277 238 261 280 242 c 256
 328 218 365 203 404 203 c 256
 474 203 509 245 532 312 c 257
 497 353 l 257
 477 306 440 276 403 276 c 256
 374 276 338 294 295 314 c 256
 245 338 215 351 174 351 c 256
 105 351 62 305 41 242 c 257
 77 198 l 257
77 372 m 257
 96 417 131 451 173 451 c 256
 205 451 238 435 280 416 c 256
 328 392 365 376 404 376 c 256
 474 376 509 419 532 486 c 257
 497 527 l 257
 477 480 440 450 403 450 c 256
 374 450 338 468 295 488 c 256
 245 512 215 525 174 525 c 256
 105 525 62 479 41 416 c 257
 77 372 l 257
EndSplineSet
EndChar

StartChar: asciicircum
Encoding: 62 94 148
Width: 652
VWidth: 0
GlyphClass: 2
Flags: HW
PickledData: "(dp1
S'org.pippin.gimp.org.kernagic'
p2
(dp3
S'lstem'
p4
I0
sS'rstem'
p5
I0
ssS'com.typemytype.robofont.layerData'
p6
(dp7
sS'org.robofab.postScriptHintData'
p8
(dp9
s."
LayerCount: 2
Fore
SplineSet
301 711 m 257
 46 143 l 257
 151 143 l 257
 326 547 l 257
 501 143 l 257
 606 143 l 257
 348 711 l 257
 301 711 l 257
EndSplineSet
EndChar

StartChar: asciitilde
Encoding: 94 126 149
Width: 582
VWidth: 0
GlyphClass: 2
Flags: HW
PickledData: "(dp1
S'org.pippin.gimp.org.kernagic'
p2
(dp3
S'lstem'
p4
I0
sS'rstem'
p5
I0
ssS'com.typemytype.robofont.layerData'
p6
(dp7
S'b'
(dp8
S'name'
p9
S'asciitilde'
p10
sS'lib'
p11
(dp12
sS'unicodes'
p13
(tsS'width'
p14
I1192
sS'contours'
p15
(tsS'components'
p16
(tsS'anchors'
p17
(tsssS'org.robofab.postScriptHintData'
p18
(dp19
s."
LayerCount: 2
Fore
SplineSet
74 237 m 257
 95 278 133 313 175 313 c 256
 209 313 243 297 289 276 c 256
 330 257 364 243 402 243 c 256
 465 243 510 284 534 341 c 257
 505 393 l 257
 480 350 444 319 405 319 c 256
 377 319 340 336 295 356 c 256
 249 377 216 389 177 389 c 256
 112 389 70 345 47 292 c 257
 74 237 l 257
EndSplineSet
EndChar

StartChar: asterisk
Encoding: 10 42 150
Width: 472
VWidth: 0
GlyphClass: 2
Flags: HW
PickledData: "(dp1
S'org.pippin.gimp.org.kernagic'
p2
(dp3
S'lstem'
p4
I0
sS'rstem'
p5
I0
ssS'com.typemytype.robofont.layerData'
p6
(dp7
sS'org.robofab.postScriptHintData'
p8
(dp9
s."
LayerCount: 2
Fore
SplineSet
150 276 m 257
 236 440 l 257
 327 276 l 257
 347 289 383 310 403 323 c 257
 371 365 307 450 287 475 c 257
 456 513 l 257
 431 599 l 257
 266 530 l 257
 283 720 l 257
 192 720 l 257
 209 530 l 257
 45 599 l 257
 20 513 l 257
 187 475 l 257
 73 323 l 257
 150 276 l 257
EndSplineSet
EndChar

StartChar: at
Encoding: 32 64 151
Width: 955
VWidth: 0
GlyphClass: 2
Flags: HW
PickledData: "(dp1
S'org.pippin.gimp.org.kernagic'
p2
(dp3
S'lstem'
p4
I0
sS'rstem'
p5
I0
ssS'com.typemytype.robofont.layerData'
p6
(dp7
sS'org.robofab.postScriptHintData'
p8
(dp9
s."
LayerCount: 2
Fore
SplineSet
445 176 m 256
 390 176 366 219 366 289 c 256
 366 395 425 479 512 479 c 256
 526 479 554 475 575 471 c 257
 555 348 l 257
 539 245 515 176 445 176 c 256
468 -88 m 256
 564 -88 663 -65 726 -20 c 257
 702 39 l 257
 636 -2 551 -18 469 -18 c 256
 269 -18 158 118 158 307 c 256
 158 505 288 666 498 666 c 256
 705 666 803 537 803 380 c 256
 803 247 745 180 692 180 c 256
 659 180 634 207 634 247 c 256
 634 309 652 400 666 502 c 257
 625 523 558 541 504 541 c 256
 360 541 283 412 283 288 c 256
 283 189 337 110 437 110 c 256
 504 110 551 162 575 220 c 257
 590 154 660 142 692 113 c 257
 779 113 880 202 880 376 c 256
 880 595 715 736 501 736 c 256
 253 736 72 553 72 309 c 256
 72 61 234 -88 468 -88 c 256
EndSplineSet
EndChar

StartChar: b
Encoding: 66 98 153
Width: 596
VWidth: 0
GlyphClass: 2
Flags: HW
PickledData: "(dp1
S'org.pippin.gimp.org.kernagic'
p2
(dp3
S'lstem'
p4
I0
sS'rstem'
p5
I0
ssS'com.fontlab.hintData'
p6
(dp7
S'vhints'
p8
((dp9
S'position'
p10
I193
sS'width'
p11
I125
s(dp12
g10
I193
sg11
I94
s(dp13
g10
I1018
sg11
I122
stp14
sS'hhints'
p15
((dp16
g10
I-19
sg11
I92
s(dp17
g10
I982
sg11
I92
stp18
ssS'com.typemytype.robofont.guides'
p19
(tsS'com.typemytype.robofont.layerData'
p20
(dp21
sS'org.robofab.postScriptHintData'
p22
(dp23
s."
HStem: -9 45 479 45
VStem: 94 61 94 46 497 60
AnchorPoint: "top" 333 528 basechar 0
LayerCount: 2
Fore
SplineSet
309 65 m 256
 253 65 209 86 180 126 c 257
 180 273 l 258
 180 395 225 464 318 464 c 256
 406 464 437 388 437 265 c 256
 437 138 395 65 309 65 c 256
336 540 m 256
 270 540 211 512 178 434 c 257
 182 545 l 257
 182 762 l 257
 77 752 l 257
 77 0 l 257
 166 0 l 257
 171 59 l 257
 201 21 251 -10 322 -10 c 256
 466 -10 545 101 545 266 c 256
 545 425 479 540 336 540 c 256
EndSplineSet
EndChar

StartChar: backslash
Encoding: 60 92 154
Width: 457
VWidth: 0
GlyphClass: 2
Flags: HW
PickledData: "(dp1
S'org.pippin.gimp.org.kernagic'
p2
(dp3
S'lstem'
p4
I0
sS'rstem'
p5
I0
ssS'com.typemytype.robofont.layerData'
p6
(dp7
S'b'
(dp8
S'name'
p9
S'backslash'
p10
sS'lib'
p11
(dp12
sS'unicodes'
p13
(tsS'width'
p14
I937
sS'contours'
p15
(tsS'components'
p16
(tsS'anchors'
p17
(tsssS'org.robofab.postScriptHintData'
p18
(dp19
s."
LayerCount: 2
Fore
SplineSet
303 -5 m 257
 383 -5 l 257
 128 725 l 257
 47 725 l 257
 303 -5 l 257
EndSplineSet
EndChar

StartChar: bar
Encoding: 92 124 155
Width: 340
VWidth: 0
GlyphClass: 2
Flags: HW
PickledData: "(dp1
S'org.pippin.gimp.org.kernagic'
p2
(dp3
S'lstem'
p4
I0
sS'rstem'
p5
I0
ssS'com.typemytype.robofont.layerData'
p6
(dp7
S'b'
(dp8
S'name'
p9
S'bar'
p10
sS'lib'
p11
(dp12
sS'unicodes'
p13
(tsS'width'
p14
I681
sS'contours'
p15
(tsS'components'
p16
(tsS'anchors'
p17
(tsssS'org.robofab.postScriptHintData'
p18
(dp19
s."
LayerCount: 2
Fore
SplineSet
129 721 m 257
 129 -159 l 257
 208 -159 l 257
 208 721 l 257
 129 721 l 257
EndSplineSet
EndChar

StartChar: braceleft
Encoding: 91 123 156
Width: 430
VWidth: 0
GlyphClass: 2
Flags: HW
PickledData: "(dp1
S'org.pippin.gimp.org.kernagic'
p2
(dp3
S'lstem'
p4
I0
sS'rstem'
p5
I0
ssS'com.typemytype.robofont.layerData'
p6
(dp7
sS'org.robofab.postScriptHintData'
p8
(dp9
s."
LayerCount: 2
Fore
SplineSet
368 -133 m 257
 368 -65 l 257
 297 -65 288 -52 288 40 c 258
 288 167 l 258
 288 245 269 287 190 301 c 257
 269 315 288 357 288 435 c 258
 288 563 l 258
 288 655 297 668 368 668 c 257
 368 737 l 257
 234 737 193 714 193 578 c 258
 193 470 l 258
 193 376 191 341 93 341 c 257
 93 262 l 257
 192 262 193 227 193 133 c 258
 193 25 l 258
 193 -112 234 -133 368 -133 c 257
EndSplineSet
EndChar

StartChar: braceright
Encoding: 93 125 157
Width: 430
VWidth: 0
GlyphClass: 2
Flags: HW
PickledData: "(dp1
S'org.pippin.gimp.org.kernagic'
p2
(dp3
S'lstem'
p4
I0
sS'rstem'
p5
I0
ssS'com.typemytype.robofont.layerData'
p6
(dp7
sS'org.robofab.postScriptHintData'
p8
(dp9
s."
LayerCount: 2
Fore
SplineSet
65 -133 m 257
 199 -133 240 -112 240 25 c 258
 240 133 l 258
 240 227 241 262 340 262 c 257
 340 341 l 257
 242 341 240 376 240 470 c 258
 240 578 l 258
 240 714 199 737 65 737 c 257
 65 668 l 257
 136 668 146 655 146 563 c 258
 146 435 l 258
 146 357 164 315 243 301 c 257
 164 287 146 245 146 167 c 258
 146 40 l 258
 146 -52 136 -65 65 -65 c 257
 65 -133 l 257
EndSplineSet
EndChar

StartChar: bracketleft
Encoding: 59 91 158
Width: 401
VWidth: 0
GlyphClass: 2
Flags: HW
PickledData: "(dp1
S'org.pippin.gimp.org.kernagic'
p2
(dp3
S'lstem'
p4
I0
sS'rstem'
p5
I0
ssS'com.typemytype.robofont.layerData'
p6
(dp7
sS'org.robofab.postScriptHintData'
p8
(dp9
s."
LayerCount: 2
Fore
SplineSet
107 -124 m 257
 332 -124 l 257
 332 -53 l 257
 203 -53 l 257
 203 651 l 257
 332 651 l 257
 332 722 l 257
 107 722 l 257
 107 -124 l 257
EndSplineSet
EndChar

StartChar: bracketright
Encoding: 61 93 159
Width: 471
VWidth: 0
GlyphClass: 2
Flags: HW
PickledData: "(dp1
S'org.pippin.gimp.org.kernagic'
p2
(dp3
S'lstem'
p4
I0
sS'rstem'
p5
I0
ssS'com.typemytype.robofont.layerData'
p6
(dp7
sS'org.robofab.postScriptHintData'
p8
(dp9
s."
LayerCount: 2
Fore
SplineSet
142 -124 m 257
 366 -124 l 257
 366 722 l 257
 142 722 l 257
 142 651 l 257
 270 651 l 257
 270 -53 l 257
 142 -53 l 257
 142 -124 l 257
EndSplineSet
EndChar

StartChar: breve
Encoding: 401 728 160
Width: 432
VWidth: 0
GlyphClass: 4
Flags: HW
PickledData: "(dp1
S'org.robofab.postScriptHintData'
p2
(dp3
sS'com.typemytype.robofont.layerData'
p4
(dp5
s."
AnchorPoint: "top" 210 522 mark 0
LayerCount: 2
Fore
SplineSet
209 632 m 256
 281 632 334 673 334 754 c 257
 271 754 l 257
 271 713 240 694 209 694 c 256
 178 694 149 713 149 754 c 257
 84 754 l 257
 84 673 137 632 209 632 c 256
EndSplineSet
EndChar

StartChar: uni0311
Encoding: 409 785 161
Width: 396
VWidth: 0
Flags: HW
PickledData: "(dp1
S'org.robofab.postScriptHintData'
p2
(dp3
sS'com.typemytype.robofont.layerData'
p4
(dp5
s."
AnchorPoint: "top" 205 522 mark 0
LayerCount: 2
Fore
SplineSet
78 632 m 257
 142 632 l 257
 142 673 171 692 202 692 c 256
 233 692 265 673 265 632 c 257
 328 632 l 257
 328 713 274 754 202 754 c 256
 130 754 78 713 78 632 c 257
EndSplineSet
EndChar

StartChar: brokenbar
Encoding: 101 166 162
Width: 333
VWidth: 0
GlyphClass: 2
Flags: HW
PickledData: "(dp1
S'org.pippin.gimp.org.kernagic'
p2
(dp3
S'lstem'
p4
I0
sS'rstem'
p5
I0
ssS'com.typemytype.robofont.layerData'
p6
(dp7
S'b'
(dp8
S'name'
p9
S'brokenbar'
p10
sS'lib'
p11
(dp12
sS'unicodes'
p13
(tsS'width'
p14
I653
sS'contours'
p15
(tsS'components'
p16
(tsS'anchors'
p17
(tsssS'org.robofab.postScriptHintData'
p18
(dp19
s."
LayerCount: 2
Fore
SplineSet
129 754 m 257
 129 394 l 257
 203 394 l 257
 203 754 l 257
 129 754 l 257
129 236 m 257
 129 -126 l 257
 203 -126 l 257
 203 236 l 257
 129 236 l 257
EndSplineSet
EndChar

StartChar: bullet
Encoding: 454 8226 163
Width: 450
VWidth: 0
GlyphClass: 2
Flags: HW
PickledData: "(dp1
S'org.pippin.gimp.org.kernagic'
p2
(dp3
S'lstem'
p4
I0
sS'rstem'
p5
I0
ssS'com.typemytype.robofont.layerData'
p6
(dp7
S'b'
(dp8
S'name'
p9
S'bullet'
p10
sS'lib'
p11
(dp12
sS'unicodes'
p13
(tsS'width'
p14
I908
sS'contours'
p15
(tsS'components'
p16
(tsS'anchors'
p17
(tsssS'org.robofab.postScriptHintData'
p18
(dp19
s."
LayerCount: 2
Fore
SplineSet
220 193 m 256
 306 193 380 257 380 358 c 256
 380 459 308 521 223 521 c 256
 138 521 62 456 62 355 c 256
 62 254 135 193 220 193 c 256
EndSplineSet
EndChar

StartChar: c
Encoding: 67 99 164
Width: 531
VWidth: 0
GlyphClass: 2
Flags: HW
PickledData: "(dp1
S'org.pippin.gimp.org.kernagic'
p2
(dp3
S'lstem'
p4
I0
sS'rstem'
p5
I696
ssS'com.fontlab.hintData'
p6
(dp7
S'vhints'
p8
((dp9
S'position'
p10
I128
sS'width'
p11
I120
stp12
sS'hhints'
p13
((dp14
g10
I-19
sg11
I92
s(dp15
g10
I982
sg11
I92
stp16
ssS'com.typemytype.robofont.guides'
p17
((dp18
S'y'
I417
sS'x'
I962
sS'magnetic'
p19
I5
sS'angle'
p20
F90
sS'isGlobal'
p21
I00
s(dp22
S'y'
I1020
sS'x'
I565
sg19
I5
sg20
F90
sg21
I00
s(dp23
S'y'
I994
sS'x'
I572
sg19
I5
sg20
F90
sg21
I00
stp24
sS'com.typemytype.robofont.layerData'
p25
(dp26
sS'org.robofab.postScriptHintData'
p27
(dp28
s."
HStem: -9 45 479 45
VStem: 62 59
AnchorPoint: "top" 302 529 basechar 0
LayerCount: 2
Fore
SplineSet
421 141 m 257
 399 98 366 67 304 67 c 258
 303 67 l 258
 212 67 160 139 160 265 c 256
 160 391 212 463 304 463 c 256
 366 463 400 431 422 388 c 257
 428 388 l 257
 494 424 l 257
 468 485 412 540 299 540 c 256
 148 540 52 433 52 265 c 256
 52 96 148 -10 299 -10 c 256
 412 -10 468 45 494 106 c 257
 428 141 l 257
 421 141 l 257
EndSplineSet
EndChar

StartChar: caron
Encoding: 399 711 166
Width: 444
VWidth: 0
GlyphClass: 4
Flags: HW
PickledData: "(dp1
S'org.robofab.postScriptHintData'
p2
(dp3
sS'com.typemytype.robofont.layerData'
p4
(dp5
s."
AnchorPoint: "top" 219 528 mark 0
LayerCount: 2
Fore
SplineSet
160 608 m 257
 265 608 l 257
 362 782 l 257
 274 782 l 257
 212 673 l 257
 150 782 l 257
 62 782 l 257
 160 608 l 257
EndSplineSet
EndChar

StartChar: caron.alt
Encoding: 65537 -1 167
Width: 346
VWidth: 0
GlyphClass: 4
Flags: HW
PickledData: "(dp1
S'org.robofab.postScriptHintData'
p2
(dp3
sS'com.typemytype.robofont.layerData'
p4
(dp5
s."
AnchorPoint: "caron.alt" 86 528 mark 0
LayerCount: 2
Fore
SplineSet
214 562 m 257
 285 562 l 257
 323 755 l 257
 228 755 l 257
 214 562 l 257
EndSplineSet
EndChar

StartChar: cedilla
Encoding: 119 184 172
Width: 341
VWidth: 0
GlyphClass: 4
Flags: HW
PickledData: "(dp1
S'org.robofab.postScriptHintData'
p2
(dp3
sS'com.typemytype.robofont.layerData'
p4
(dp5
s."
LayerCount: 2
Fore
SplineSet
182 -198 m 256
 252 -198 305 -161 305 -99 c 256
 305 -46 269 -19 223 -19 c 256
 206 -19 188 -22 170 -29 c 257
 170 -57 l 257
 179 -56 189 -54 196 -54 c 256
 236 -54 246 -77 246 -98 c 256
 246 -131 216 -149 177 -149 c 256
 159 -149 140 -145 120 -137 c 257
 104 -181 l 257
 129 -192 155 -198 182 -198 c 256
EndSplineSet
EndChar

StartChar: cent
Encoding: 97 162 173
Width: 531
VWidth: 0
GlyphClass: 2
Flags: HW
PickledData: "(dp1
S'org.pippin.gimp.org.kernagic'
p2
(dp3
S'lstem'
p4
I0
sS'rstem'
p5
I0
ssS'com.typemytype.robofont.layerData'
p6
(dp7
sS'org.robofab.postScriptHintData'
p8
(dp9
s."
LayerCount: 2
Fore
SplineSet
266 19 m 257
 265 -150 l 257
 323 -150 l 257
 331 19 l 257
 266 19 l 257
270 675 m 257
 265 515 l 257
 327 515 l 257
 329 675 l 257
 270 675 l 257
EndSplineSet
Refer: 164 99 N 1 0 0 1 0 0 2
EndChar

StartChar: circumflex
Encoding: 398 710 174
Width: 437
VWidth: 0
GlyphClass: 4
Flags: HW
PickledData: "(dp1
S'org.robofab.postScriptHintData'
p2
(dp3
sS'com.typemytype.robofont.layerData'
p4
(dp5
s."
AnchorPoint: "top" 213 528 mark 0
LayerCount: 2
Fore
SplineSet
61 616 m 257
 149 616 l 257
 211 726 l 257
 274 616 l 257
 362 616 l 257
 264 791 l 257
 159 791 l 257
 61 616 l 257
EndSplineSet
EndChar

StartChar: colon
Encoding: 26 58 175
Width: 326
VWidth: 0
GlyphClass: 2
Flags: HW
PickledData: "(dp1
S'org.pippin.gimp.org.kernagic'
p2
(dp3
S'lstem'
p4
I0
sS'rstem'
p5
I0
ssS'com.typemytype.robofont.layerData'
p6
(dp7
S'b'
(dp8
S'name'
p9
S'colon'
p10
sS'lib'
p11
(dp12
sS'unicodes'
p13
(tsS'width'
p14
I653
sS'contours'
p15
(tsS'components'
p16
(tsS'anchors'
p17
(tsssS'org.robofab.postScriptHintData'
p18
(dp19
s."
LayerCount: 2
Fore
SplineSet
163 -4 m 256
 205 -4 227 24 227 61 c 256
 227 97 205 126 163 126 c 256
 121 126 97 97 97 61 c 256
 97 24 121 -4 163 -4 c 256
163 402 m 256
 205 402 227 430 227 467 c 256
 227 503 205 533 163 533 c 256
 121 533 97 503 97 467 c 256
 97 430 121 402 163 402 c 256
EndSplineSet
EndChar

StartChar: comma
Encoding: 12 44 176
Width: 312
VWidth: 0
GlyphClass: 2
Flags: HW
PickledData: "(dp1
S'org.pippin.gimp.org.kernagic'
p2
(dp3
S'lstem'
p4
I0
sS'rstem'
p5
I0
ssS'com.typemytype.robofont.layerData'
p6
(dp7
sS'org.robofab.postScriptHintData'
p8
(dp9
s."
LayerCount: 2
Fore
SplineSet
94 -153 m 257
 156 -153 l 257
 214 68 l 257
 214 121 l 257
 113 121 l 257
 113 112 94 -153 94 -153 c 257
EndSplineSet
EndChar

StartChar: uni0326
Encoding: 411 806 177
Width: 299
VWidth: 0
Flags: HW
PickledData: "(dp1
S'org.robofab.postScriptHintData'
p2
(dp3
s."
LayerCount: 2
Fore
SplineSet
88 -258 m 257
 157 -258 l 257
 157 -258 210 -79 209 -62 c 257
 114 -62 l 257
 114 -89 88 -258 88 -258 c 257
EndSplineSet
EndChar

StartChar: uni0312
Encoding: 410 786 178
Width: 292
VWidth: 0
Flags: HW
PickledData: "(dp1
S'org.robofab.postScriptHintData'
p2
(dp3
s."
AnchorPoint: "top" 144 522 mark 0
LayerCount: 2
Fore
SplineSet
91 636 m 257
 89 625 l 257
 195 625 l 257
 195 652 214 872 214 872 c 257
 146 872 l 257
 146 872 91 654 91 636 c 257
EndSplineSet
EndChar

StartChar: copyright
Encoding: 104 169 179
Width: 843
VWidth: 0
GlyphClass: 2
Flags: HW
PickledData: "(dp1
S'org.pippin.gimp.org.kernagic'
p2
(dp3
S'lstem'
p4
I0
sS'rstem'
p5
I0
ssS'com.typemytype.robofont.layerData'
p6
(dp7
sS'org.robofab.postScriptHintData'
p8
(dp9
s."
LayerCount: 2
Fore
SplineSet
386 -15 m 256
 579 -15 762 122 762 355 c 256
 762 589 579 726 386 726 c 256
 194 726 14 589 14 355 c 256
 14 122 194 -15 386 -15 c 256
386 37 m 256
 222 37 72 154 72 355 c 256
 72 555 222 673 386 673 c 256
 550 673 702 555 702 355 c 256
 702 155 550 37 386 37 c 256
396 117 m 256
 445 117 492 130 534 156 c 257
 516 203 l 257
 475 179 437 170 399 170 c 256
 306 170 231 239 231 357 c 256
 231 468 305 541 396 541 c 256
 431 541 475 529 511 505 c 257
 533 553 l 257
 491 581 443 595 393 595 c 256
 270 595 163 499 163 356 c 256
 163 210 272 117 396 117 c 256
EndSplineSet
EndChar

StartChar: currency
Encoding: 99 164 180
Width: 561
VWidth: 0
GlyphClass: 2
Flags: HW
PickledData: "(dp1
S'org.pippin.gimp.org.kernagic'
p2
(dp3
S'lstem'
p4
I0
sS'rstem'
p5
I0
ssS'com.typemytype.robofont.layerData'
p6
(dp7
S'b'
(dp8
S'name'
p9
S'currency'
p10
sS'lib'
p11
(dp12
sS'unicodes'
p13
(tsS'width'
p14
I1164
sS'contours'
p15
(tsS'components'
p16
(tsS'anchors'
p17
(tsssS'org.robofab.postScriptHintData'
p18
(dp19
s."
LayerCount: 2
Fore
SplineSet
422 354 m 256
 422 273 366 206 280 206 c 256
 196 206 138 273 138 354 c 256
 138 435 196 504 280 504 c 256
 365 504 422 435 422 354 c 256
403 514 m 257
 369 542 327 559 280 559 c 256
 234 559 190 543 156 515 c 257
 69 599 l 257
 31 562 l 257
 120 475 l 257
 95 439 82 398 82 354 c 256
 82 310 96 270 120 235 c 257
 32 149 l 257
 69 111 l 257
 156 195 l 257
 191 167 233 152 280 152 c 256
 327 152 369 167 403 195 c 257
 492 110 l 257
 527 149 l 257
 440 235 l 257
 464 270 478 310 478 354 c 256
 478 397 464 439 440 475 c 257
 527 561 l 257
 492 599 l 257
 403 514 l 257
EndSplineSet
EndChar

StartChar: d
Encoding: 68 100 181
Width: 593
VWidth: 0
GlyphClass: 2
Flags: HW
PickledData: "(dp1
S'org.pippin.gimp.org.kernagic'
p2
(dp3
S'lstem'
p4
I0
sS'rstem'
p5
I0
ssS'com.typemytype.robofont.layerData'
p6
(dp7
sS'com.fontlab.hintData'
p8
(dp9
S'vhints'
p10
((dp11
S'position'
p12
I114
sS'width'
p13
I166
s(dp14
g12
I907
sg13
I161
s(dp15
g12
I930
sg13
I138
stp16
sS'hhints'
p17
((dp18
g12
I-19
sg13
I127
s(dp19
g12
I953
sg13
I127
stp20
ssS'org.robofab.postScriptHintData'
p21
(dp22
s."
HStem: -9 62 465 62
VStem: 56 81 443 79 454 67
AnchorPoint: "caron.alt" 542 576 basechar 0
AnchorPoint: "top" 253 528 basechar 0
LayerCount: 2
Fore
SplineSet
293 65 m 256
 205 65 161 135 161 266 c 256
 161 398 208 464 294 464 c 256
 348 464 392 444 417 408 c 257
 417 120 l 257
 389 84 345 65 293 65 c 256
277 -10 m 256
 336 -10 391 18 426 65 c 257
 431 0 l 257
 523 0 l 257
 523 762 l 257
 415 752 l 257
 415 562 l 257
 417 483 l 257
 388 515 344 539 282 539 c 258
 279 539 l 257
 277 539 l 258
 134 539 52 430 52 265 c 256
 52 104 130 -10 277 -10 c 256
EndSplineSet
EndChar

StartChar: dagger
Encoding: 452 8224 182
Width: 527
VWidth: 0
GlyphClass: 2
Flags: HW
PickledData: "(dp1
S'org.pippin.gimp.org.kernagic'
p2
(dp3
S'lstem'
p4
I0
sS'rstem'
p5
I0
ssS'com.typemytype.robofont.layerData'
p6
(dp7
S'b'
(dp8
S'name'
p9
S'dagger'
p10
sS'lib'
p11
(dp12
sS'unicodes'
p13
(tsS'width'
p14
I1050
sS'contours'
p15
(tsS'components'
p16
(tsS'anchors'
p17
(tsssS'org.robofab.postScriptHintData'
p18
(dp19
s."
LayerCount: 2
Fore
SplineSet
221 725 m 257
 221 539 l 257
 78 539 l 257
 78 476 l 257
 221 476 l 257
 221 27 l 257
 302 27 l 257
 302 476 l 257
 449 476 l 257
 449 539 l 257
 303 539 l 257
 303 725 l 257
 221 725 l 257
EndSplineSet
EndChar

StartChar: daggerdbl
Encoding: 453 8225 183
Width: 513
VWidth: 0
GlyphClass: 2
Flags: HW
PickledData: "(dp1
S'org.pippin.gimp.org.kernagic'
p2
(dp3
S'lstem'
p4
I0
sS'rstem'
p5
I0
ssS'com.typemytype.robofont.layerData'
p6
(dp7
S'b'
(dp8
S'name'
p9
S'daggerdbl'
p10
sS'lib'
p11
(dp12
sS'unicodes'
p13
(tsS'width'
p14
I1022
sS'contours'
p15
(tsS'components'
p16
(tsS'anchors'
p17
(tsssS'org.robofab.postScriptHintData'
p18
(dp19
s."
LayerCount: 2
Fore
SplineSet
219 718 m 257
 219 531 l 257
 81 531 l 257
 81 468 l 257
 219 468 l 257
 219 270 l 257
 81 270 l 257
 81 209 l 257
 219 209 l 257
 219 7 l 257
 302 7 l 257
 302 209 l 257
 441 209 l 257
 441 270 l 257
 303 270 l 257
 303 468 l 257
 442 468 l 257
 442 531 l 257
 301 531 l 257
 301 718 l 257
 219 718 l 257
EndSplineSet
EndChar

StartChar: uni030F
Encoding: 408 783 184
Width: 456
VWidth: 0
Flags: HW
PickledData: "(dp1
S'org.robofab.postScriptHintData'
p2
(dp3
sS'com.typemytype.robofont.layerData'
p4
(dp5
s."
AnchorPoint: "top" 246 522 mark 0
LayerCount: 2
Fore
SplineSet
286 610 m 257
 346 610 l 257
 279 787 l 257
 188 787 l 257
 286 610 l 257
143 610 m 257
 201 610 l 257
 128 787 l 257
 27 787 l 257
 143 610 l 257
EndSplineSet
EndChar

StartChar: degree
Encoding: 111 176 187
Width: 422
VWidth: 0
GlyphClass: 2
Flags: HW
PickledData: "(dp1
S'org.pippin.gimp.org.kernagic'
p2
(dp3
S'lstem'
p4
I0
sS'rstem'
p5
I0
ssS'com.typemytype.robofont.layerData'
p6
(dp7
sS'org.robofab.postScriptHintData'
p8
(dp9
s."
LayerCount: 2
Fore
SplineSet
209 436 m 256
 294 436 358 501 358 582 c 256
 358 665 292 726 209 726 c 256
 126 726 61 665 61 582 c 256
 61 499 126 436 209 436 c 256
209 491 m 256
 161 491 122 527 122 582 c 256
 122 636 162 671 209 671 c 256
 256 671 296 636 296 582 c 256
 296 527 257 491 209 491 c 256
EndSplineSet
EndChar

StartChar: dieresis
Encoding: 103 168 188
Width: 473
VWidth: 0
GlyphClass: 4
Flags: HW
PickledData: "(dp1
S'org.robofab.postScriptHintData'
p2
(dp3
sS'com.typemytype.robofont.layerData'
p4
(dp5
s."
AnchorPoint: "top" 235 528 mark 0
LayerCount: 2
Fore
SplineSet
341 624 m 256
 379 624 398 648 398 681 c 256
 398 715 379 740 341 740 c 256
 302 740 284 715 284 681 c 256
 284 648 302 624 341 624 c 256
121 624 m 256
 159 624 178 648 178 681 c 256
 178 715 159 740 121 740 c 256
 82 740 63 715 63 681 c 256
 63 648 82 624 121 624 c 256
EndSplineSet
EndChar

StartChar: divide
Encoding: 182 247 189
Width: 583
VWidth: 0
GlyphClass: 2
Flags: HW
PickledData: "(dp1
S'org.pippin.gimp.org.kernagic'
p2
(dp3
S'lstem'
p4
I0
sS'rstem'
p5
I0
ssS'com.typemytype.robofont.layerData'
p6
(dp7
sS'org.robofab.postScriptHintData'
p8
(dp9
s."
LayerCount: 2
Fore
SplineSet
236 544 m 257
 236 435 l 257
 345 435 l 257
 345 544 l 257
 236 544 l 257
236 126 m 257
 236 14 l 257
 343 14 l 257
 343 126 l 257
 236 126 l 257
48 323 m 257
 48 245 l 257
 530 245 l 257
 530 323 l 257
 48 323 l 257
EndSplineSet
EndChar

StartChar: dollar
Encoding: 4 36 190
Width: 597
VWidth: 0
GlyphClass: 2
Flags: HW
PickledData: "(dp1
S'org.pippin.gimp.org.kernagic'
p2
(dp3
S'lstem'
p4
I0
sS'rstem'
p5
I0
ssS'com.typemytype.robofont.layerData'
p6
(dp7
S'b'
(dp8
S'name'
p9
S'dollar'
p10
sS'lib'
p11
(dp12
sS'unicodes'
p13
(tsS'width'
p14
I1221
sS'contours'
p15
(tsS'components'
p16
(tsS'anchors'
p17
(tsssS'org.robofab.postScriptHintData'
p18
(dp19
s."
LayerCount: 2
Fore
SplineSet
266 22 m 257
 266 -143 l 257
 331 -143 l 257
 335 22 l 257
 266 22 l 257
271 863 m 257
 265 698 l 257
 337 698 l 257
 337 863 l 257
 271 863 l 257
EndSplineSet
Refer: 92 83 N 1 0 0 1 0 0 2
EndChar

StartChar: dotaccent
Encoding: 402 729 191
Width: 239
VWidth: 0
GlyphClass: 4
Flags: HW
PickledData: "(dp1
S'org.robofab.postScriptHintData'
p2
(dp3
sS'com.typemytype.robofont.layerData'
p4
(dp5
s."
AnchorPoint: "top" 119 528 mark 0
LayerCount: 2
Fore
SplineSet
191 701 m 256
 191 742 165 768 120 768 c 256
 75 768 48 742 48 701 c 256
 48 659 75 632 120 632 c 256
 165 632 191 659 191 701 c 256
EndSplineSet
EndChar

StartChar: dotlessi
Encoding: 240 305 192
Width: 266
VWidth: 0
GlyphClass: 2
Flags: HW
PickledData: "(dp1
S'org.pippin.gimp.org.kernagic'
p2
(dp3
S'lstem'
p4
I0
sS'rstem'
p5
I0
ssS'com.typemytype.robofont.layerData'
p6
(dp7
sS'org.robofab.postScriptHintData'
p8
(dp9
s."
AnchorPoint: "top" 140 528 basechar 0
LayerCount: 2
Fore
SplineSet
84 528 m 257
 84 0 l 257
 191 0 l 257
 191 528 l 257
 84 528 l 257
EndSplineSet
EndChar

StartChar: uni0237
Encoding: 396 567 193
Width: 301
VWidth: 0
GlyphClass: 2
Flags: HW
PickledData: "(dp1
S'org.pippin.gimp.org.kernagic'
p2
(dp3
S'lstem'
p4
I0
sS'rstem'
p5
I0
ssS'com.typemytype.robofont.layerData'
p6
(dp7
sS'com.fontlab.hintData'
p8
(dp9
S'vhints'
p10
((dp11
S'position'
p12
I111
sS'width'
p13
I142
stp14
sS'hhints'
p15
((dp16
g12
I-479
sg13
I112
stp17
ssS'org.robofab.postScriptHintData'
p18
(dp19
s."
HStem: -234 55
VStem: 54 69
AnchorPoint: "top" 169 528 basechar 0
LayerCount: 2
Fore
SplineSet
113 528 m 257
 113 8 l 258
 113 -79 109 -98 34 -119 c 258
 -0 -129 l 257
 23 -210 l 257
 56 -202 l 257
 169 -177 219 -141 219 -8 c 258
 219 528 l 257
 113 528 l 257
EndSplineSet
EndChar

StartChar: e
Encoding: 69 101 194
Width: 560
VWidth: 0
GlyphClass: 2
Flags: HW
PickledData: "(dp1
S'org.pippin.gimp.org.kernagic'
p2
(dp3
S'lstem'
p4
I0
sS'rstem'
p5
I747
ssS'com.typemytype.robofont.layerData'
p6
(dp7
sS'com.fontlab.hintData'
p8
(dp9
S'hhints'
p10
((dp11
S'position'
p12
I-19
sS'width'
p13
I94
s(dp14
g12
I982
sg13
I92
stp15
ssS'org.robofab.postScriptHintData'
p16
(dp17
s."
HStem: -9 46 479 45
AnchorPoint: "top" 303 528 basechar 0
LayerCount: 2
Fore
SplineSet
161 306 m 257
 169 407 225 465 304 465 c 256
 383 465 419 409 420 306 c 257
 161 306 l 257
506 241 m 257
 506 241 511 276 511 296 c 256
 511 444 437 540 299 540 c 256
 160 540 52 437 52 263 c 256
 52 94 162 -10 311 -10 c 256
 389 -10 455 13 498 45 c 257
 474 109 l 257
 467 109 l 257
 424 84 383 65 324 65 c 256
 234 65 168 119 160 241 c 257
 506 241 l 257
EndSplineSet
EndChar

StartChar: eight
Encoding: 24 56 202
Width: 626
VWidth: 0
GlyphClass: 2
Flags: HW
PickledData: "(dp1
S'org.pippin.gimp.org.kernagic'
p2
(dp3
S'lstem'
p4
I0
sS'rstem'
p5
I0
ssS'com.typemytype.robofont.layerData'
p6
(dp7
sS'org.robofab.postScriptHintData'
p8
(dp9
s."
LayerCount: 2
Fore
SplineSet
314 402 m 257
 234 423 191 471 191 543 c 256
 191 608 240 646 314 646 c 256
 388 646 436 608 436 543 c 256
 436 472 395 423 314 402 c 257
314 67 m 256
 225 67 178 108 178 188 c 256
 178 270 236 320 314 339 c 257
 392 320 448 269 448 189 c 256
 448 106 406 67 314 67 c 256
314 -10 m 256
 452 -10 554 54 554 181 c 256
 554 275 500 346 416 375 c 257
 490 403 540 457 540 544 c 256
 540 659 445 721 314 721 c 256
 183 721 87 659 87 544 c 256
 87 456 141 400 214 375 c 257
 126 344 72 280 72 181 c 256
 72 54 177 -10 314 -10 c 256
EndSplineSet
EndChar

StartChar: emdash
Encoding: 445 8212 205
Width: 1050
VWidth: 0
GlyphClass: 2
Flags: HW
PickledData: "(dp1
S'org.robofab.postScriptHintData'
p2
(dp3
sS'com.typemytype.robofont.layerData'
p4
(dp5
s."
LayerCount: 2
Fore
SplineSet
29 245 m 257
 1021 245 l 257
 1021 322 l 257
 29 322 l 257
 29 245 l 257
EndSplineSet
EndChar

StartChar: endash
Encoding: 444 8211 206
Width: 629
VWidth: 0
GlyphClass: 2
Flags: HW
PickledData: "(dp1
S'org.pippin.gimp.org.kernagic'
p2
(dp3
S'lstem'
p4
I0
sS'rstem'
p5
I0
ssS'com.typemytype.robofont.layerData'
p6
(dp7
sS'org.robofab.postScriptHintData'
p8
(dp9
s."
LayerCount: 2
Fore
SplineSet
42 247 m 257
 588 247 l 257
 588 320 l 257
 42 320 l 257
 42 247 l 257
EndSplineSet
EndChar

StartChar: eng
Encoding: 266 331 207
Width: 588
VWidth: 0
GlyphClass: 2
Flags: HW
PickledData: "(dp1
S'org.robofab.postScriptHintData'
p2
(dp3
sS'com.typemytype.robofont.layerData'
p4
(dp5
s."
LayerCount: 2
Fore
SplineSet
418 67 m 257
 418 -6 l 257
 418 -113 401 -142 234 -142 c 257
 238 -219 l 257
 456 -217 524 -169 524 -11 c 258
 524 67 l 257
 418 67 l 257
EndSplineSet
Refer: 275 110 N 1 0 0 1 0 0 2
EndChar

StartChar: equal
Encoding: 29 61 209
Width: 541
VWidth: 0
GlyphClass: 2
Flags: HW
PickledData: "(dp1
S'org.pippin.gimp.org.kernagic'
p2
(dp3
S'lstem'
p4
I0
sS'rstem'
p5
I0
ssS'com.typemytype.robofont.layerData'
p6
(dp7
S'b'
(dp8
S'name'
p9
S'equal'
p10
sS'lib'
p11
(dp12
sS'unicodes'
p13
(tsS'width'
p14
I1050
sS'contours'
p15
(tsS'components'
p16
(tsS'anchors'
p17
(tsssS'org.robofab.postScriptHintData'
p18
(dp19
s."
LayerCount: 2
Fore
SplineSet
59 292 m 257
 59 210 l 257
 482 210 l 257
 482 292 l 257
 59 292 l 257
59 485 m 257
 59 404 l 257
 482 404 l 257
 482 485 l 257
 59 485 l 257
EndSplineSet
EndChar

StartChar: estimated
Encoding: 465 8494 210
Width: 589
VWidth: 0
GlyphClass: 2
Flags: HW
PickledData: "(dp1
S'org.robofab.postScriptHintData'
p2
(dp3
sS'com.typemytype.robofont.layerData'
p4
(dp5
S'b'
(dp6
S'name'
p7
S'estimated'
p8
sS'lib'
p9
(dp10
sS'unicodes'
p11
(tsS'width'
p12
I1223
sS'contours'
p13
(tsS'components'
p14
(tsS'anchors'
p15
(tsss."
LayerCount: 2
Fore
SplineSet
481 292 m 257
 159 292 l 257
 166 419 234 505 317 505 c 256
 419 505 481 406 481 292 c 257
46 262 m 256
 46 107 137 -10 323 -10 c 256
 424 -10 490 33 538 91 c 257
 513 116 l 257
 465 65 410 26 323 26 c 256
 212 26 158 118 158 252 c 257
 542 252 l 257
 542 421 469 534 314 534 c 256
 158 534 46 417 46 262 c 256
EndSplineSet
EndChar

StartChar: eth
Encoding: 175 240 211
Width: 588
VWidth: 0
GlyphClass: 2
Flags: HW
PickledData: "(dp1
S'org.pippin.gimp.org.kernagic'
p2
(dp3
S'lstem'
p4
I0
sS'rstem'
p5
I0
ssS'com.typemytype.robofont.layerData'
p6
(dp7
sS'org.robofab.postScriptHintData'
p8
(dp9
s."
LayerCount: 2
Fore
SplineSet
452 240 m 256
 452 135 398 65 295 65 c 256
 190 65 136 146 136 237 c 256
 136 333 193 403 292 403 c 256
 395 403 452 327 452 240 c 256
103 762 m 257
 206 662 l 257
 104 621 l 257
 130 557 l 257
 253 605 l 257
 321 538 371 475 395 433 c 257
 369 451 337 473 280 473 c 256
 141 473 45 379 45 237 c 256
 45 102 135 -10 292 -10 c 256
 452 -10 538 92 538 237 c 256
 538 305 520 372 494 422 c 256
 460 485 411 548 329 638 c 257
 445 683 l 257
 418 747 l 257
 281 693 l 257
 212 762 l 257
 103 762 l 257
EndSplineSet
EndChar

StartChar: exclam
Encoding: 1 33 212
Width: 354
VWidth: 0
GlyphClass: 2
Flags: HW
PickledData: "(dp1
S'org.pippin.gimp.org.kernagic'
p2
(dp3
S'lstem'
p4
I0
sS'rstem'
p5
I0
ssS'com.typemytype.robofont.layerData'
p6
(dp7
sS'org.robofab.postScriptHintData'
p8
(dp9
s."
LayerCount: 2
Fore
SplineSet
173 -6 m 256
 214 -6 235 26 235 59 c 256
 235 91 214 122 173 122 c 256
 132 122 110 91 110 59 c 256
 110 26 132 -6 173 -6 c 256
153 215 m 257
 194 215 l 257
 221 650 l 257
 221 726 l 257
 124 726 l 257
 124 650 l 257
 153 215 l 257
EndSplineSet
EndChar

StartChar: f
Encoding: 70 102 214
Width: 379
VWidth: 0
GlyphClass: 2
Flags: HW
PickledData: "(dp1
S'org.pippin.gimp.org.kernagic'
p2
(dp3
S'lstem'
p4
I182
sS'rstem'
p5
I417
ssS'com.typemytype.robofont.layerData'
p6
(dp7
sS'com.fontlab.hintData'
p8
(dp9
S'vhints'
p10
((dp11
S'position'
p12
I269
sS'width'
p13
I166
stp14
sS'hhints'
p15
((dp16
g12
I952
sg13
I89
s(dp17
g12
I1358
sg13
I122
stp18
ssS'org.robofab.postScriptHintData'
p19
(dp20
s."
HStem: 465 43 663 60
VStem: 131 81
AnchorPoint: "top" 198 711 basechar 0
LayerCount: 2
Fore
SplineSet
224 528 m 257
 224 567 l 258
 224 647 243 667 308 667 c 256
 325 667 354 664 363 663 c 257
 368 731 l 257
 364 732 330 741 282 741 c 258
 277 741 l 258
 179 741 118 711 118 567 c 258
 118 527 l 257
 32 519 l 257
 30 465 l 257
 118 465 l 257
 118 0 l 257
 224 0 l 257
 224 465 l 257
 357 465 l 257
 357 528 l 257
 224 528 l 257
EndSplineSet
EndChar

StartChar: five
Encoding: 21 53 215
Width: 626
VWidth: 0
GlyphClass: 2
Flags: HW
PickledData: "(dp1
S'org.pippin.gimp.org.kernagic'
p2
(dp3
S'lstem'
p4
I0
sS'rstem'
p5
I0
ssS'com.typemytype.robofont.layerData'
p6
(dp7
sS'org.robofab.postScriptHintData'
p8
(dp9
s."
LayerCount: 2
Fore
SplineSet
327 382 m 256
 410 382 454 309 454 232 c 256
 454 150 407 77 308 77 c 256
 241 77 190 103 153 156 c 257
 145 156 l 257
 87 98 l 257
 121 43 198 -10 312 -10 c 256
 479 -10 562 109 562 232 c 256
 562 345 490 459 344 459 c 256
 290 459 251 442 218 413 c 257
 240 631 l 257
 510 631 l 257
 521 711 l 257
 146 711 l 257
 122 335 l 257
 205 321 l 257
 231 361 275 382 327 382 c 256
EndSplineSet
EndChar

StartChar: florin
Encoding: 318 402 217
Width: 521
VWidth: 0
GlyphClass: 2
Flags: HW
PickledData: "(dp1
S'org.robofab.postScriptHintData'
p2
(dp3
s."
LayerCount: 2
Fore
SplineSet
259 610 m 258
 243 521 l 257
 156 521 l 257
 147 481 l 257
 237 481 l 257
 144 57 l 257
 125 -35 128 -94 47 -94 c 256
 33 -94 16 -92 -4 -88 c 257
 -15 -134 l 257
 8 -141 30 -146 51 -146 c 256
 141 -146 209 -77 238 59 c 257
 332 481 l 257
 451 481 l 257
 458 521 l 257
 340 521 l 257
 358 622 l 258
 369 679 387 721 436 721 c 256
 473 721 485 690 487 636 c 257
 555 636 l 257
 554 736 504 775 429 775 c 256
 330 775 277 709 259 610 c 258
EndSplineSet
EndChar

StartChar: foundryicon
Encoding: 488 -1 218
Width: 657
VWidth: 0
GlyphClass: 2
Flags: HW
PickledData: "(dp1
S'org.robofab.postScriptHintData'
p2
(dp3
s."
LayerCount: 2
Fore
SplineSet
137 1 m 257
 327 136 l 257
 521 1 l 257
 450 225 l 257
 641 369 l 257
 404 369 l 257
 327 593 l 257
 253 369 l 257
 17 369 l 257
 207 225 l 257
 137 1 l 257
237 198 m 257
 237 328 l 257
 289 328 l 257
 372 255 l 257
 372 328 l 257
 423 328 l 257
 423 198 l 257
 372 198 l 257
 289 270 l 257
 289 198 l 257
 237 198 l 257
EndSplineSet
EndChar

StartChar: four
Encoding: 20 52 219
Width: 626
VWidth: 0
GlyphClass: 2
Flags: HW
PickledData: "(dp1
S'org.pippin.gimp.org.kernagic'
p2
(dp3
S'lstem'
p4
I0
sS'rstem'
p5
I0
ssS'com.typemytype.robofont.layerData'
p6
(dp7
sS'org.robofab.postScriptHintData'
p8
(dp9
s."
LayerCount: 2
Fore
SplineSet
160 256 m 257
 372 591 l 257
 372 256 l 257
 160 256 l 257
372 0 m 257
 480 0 l 257
 480 177 l 257
 563 177 l 257
 569 257 l 257
 480 257 l 257
 480 711 l 257
 359 711 l 257
 62 255 l 257
 82 177 l 257
 372 177 l 257
 372 0 l 257
EndSplineSet
EndChar

StartChar: fraction
Encoding: 459 8260 220
Width: 522
VWidth: 0
GlyphClass: 2
Flags: HW
PickledData: "(dp1
S'org.robofab.postScriptHintData'
p2
(dp3
s."
LayerCount: 2
Fore
SplineSet
54 0 m 257
 134 0 l 257
 489 727 l 257
 410 727 l 257
 54 0 l 257
EndSplineSet
EndChar

StartChar: g
Encoding: 71 103 221
Width: 593
VWidth: 0
GlyphClass: 2
Flags: HW
PickledData: "(dp1
S'org.pippin.gimp.org.kernagic'
p2
(dp3
S'lstem'
p4
I0
sS'rstem'
p5
I0
ssS'com.typemytype.robofont.layerData'
p6
(dp7
sS'com.fontlab.hintData'
p8
(dp9
S'vhints'
p10
((dp11
S'position'
p12
I128
sS'width'
p13
I122
s(dp14
g12
I977
sg13
I125
s(dp15
g12
I977
sg13
I36
stp16
sS'hhints'
p17
((dp18
g12
I-426
sg13
I101
s(dp19
g12
I0
sg13
I93
s(dp20
g12
I982
sg13
I92
stp21
ssS'org.robofab.postScriptHintData'
p22
(dp23
s."
HStem: -208 49 0 45 479 45
VStem: 62 60 477 61 477 18
AnchorPoint: "top" 292 528 basechar 0
LayerCount: 2
Fore
SplineSet
293 65 m 256
 203 65 160 139 160 269 c 256
 160 398 209 464 293 464 c 256
 347 464 387 445 417 405 c 257
 417 117 l 257
 391 83 344 65 293 65 c 256
275 -240 m 256
 442 -240 520 -157 520 19 c 258
 520 528 l 257
 425 528 l 257
 422 477 l 257
 393 512 347 540 281 540 c 256
 148 540 52 440 52 268 c 256
 52 86 143 -7 278 -7 c 258
 279 -7 l 258
 332 -7 384 9 419 46 c 257
 421 7 l 257
 421 -2 l 258
 421 -124 365 -163 269 -163 c 256
 225 -163 171 -153 129 -136 c 257
 117 -136 l 257
 109 -214 l 257
 153 -229 213 -240 275 -240 c 256
EndSplineSet
EndChar

StartChar: germandbls
Encoding: 158 223 227
Width: 631
VWidth: 0
GlyphClass: 2
Flags: HW
PickledData: "(dp1
S'org.pippin.gimp.org.kernagic'
p2
(dp3
S'lstem'
p4
I0
sS'rstem'
p5
I0
ssS'com.typemytype.robofont.layerData'
p6
(dp7
S'b'
(dp8
S'name'
p9
S'germandbls'
p10
sS'lib'
p11
(dp12
sS'unicodes'
p13
(tsS'width'
p14
I1278
sS'contours'
p15
(tsS'components'
p16
(tsS'anchors'
p17
(tsssS'org.robofab.postScriptHintData'
p18
(dp19
s."
LayerCount: 2
Fore
SplineSet
422 -10 m 256
 529 -10 588 50 588 148 c 256
 588 296 399 345 399 394 c 256
 399 434 502 482 502 589 c 256
 502 689 422 750 306 750 c 256
 160 750 76 663 76 519 c 258
 76 0 l 257
 182 0 l 257
 182 515 l 258
 182 624 226 670 310 670 c 256
 370 670 402 639 402 589 c 256
 402 493 308 467 308 384 c 256
 308 288 480 249 480 148 c 256
 480 105 456 70 401 70 c 256
 353 70 302 88 278 101 c 257
 254 27 l 257
 298 6 364 -10 422 -10 c 256
EndSplineSet
EndChar

StartChar: grave
Encoding: 64 96 228
Width: 468
VWidth: 0
GlyphClass: 4
Flags: HW
PickledData: "(dp1
S'org.robofab.postScriptHintData'
p2
(dp3
sS'com.typemytype.robofont.layerData'
p4
(dp5
s."
AnchorPoint: "top" 240 522 mark 0
LayerCount: 2
Fore
SplineSet
199 590 m 257
 266 590 l 257
 172 777 l 257
 46 777 l 257
 199 590 l 257
EndSplineSet
EndChar

StartChar: greater
Encoding: 30 62 229
Width: 540
VWidth: 0
GlyphClass: 2
Flags: HW
PickledData: "(dp1
S'org.pippin.gimp.org.kernagic'
p2
(dp3
S'lstem'
p4
I0
sS'rstem'
p5
I0
ssS'com.typemytype.robofont.layerData'
p6
(dp7
S'b'
(dp8
S'name'
p9
S'greater'
p10
sS'lib'
p11
(dp12
sS'unicodes'
p13
(tsS'width'
p14
I1107
sS'contours'
p15
(tsS'components'
p16
(tsS'anchors'
p17
(tsssS'org.robofab.postScriptHintData'
p18
(dp19
s."
LayerCount: 2
Fore
SplineSet
45 506 m 257
 387 324 l 257
 44 161 l 257
 44 75 l 257
 500 296 l 257
 500 347 l 257
 45 589 l 257
 45 506 l 257
EndSplineSet
EndChar

StartChar: greaterequal
Encoding: 480 8805 230
Width: 582
VWidth: 0
GlyphClass: 2
Flags: HW
PickledData: "(dp1
S'org.pippin.gimp.org.kernagic'
p2
(dp3
S'lstem'
p4
I0
sS'rstem'
p5
I0
ssS'com.typemytype.robofont.layerData'
p6
(dp7
S'b'
(dp8
S'name'
p9
S'greaterequal'
p10
sS'lib'
p11
(dp12
sS'unicodes'
p13
(tsS'width'
p14
I1192
sS'contours'
p15
(tsS'components'
p16
(tsS'anchors'
p17
(tsssS'org.robofab.postScriptHintData'
p18
(dp19
s."
LayerCount: 2
Fore
SplineSet
64 3 m 257
 520 3 l 257
 520 72 l 257
 64 71 l 257
 64 3 l 257
75 112 m 257
 512 347 l 257
 512 393 l 257
 77 639 l 257
 77 559 l 257
 419 370 l 257
 75 192 l 257
 75 112 l 257
EndSplineSet
EndChar

StartChar: guillemotleft
Encoding: 106 171 231
Width: 492
VWidth: 0
GlyphClass: 2
Flags: HW
PickledData: "(dp1
S'org.pippin.gimp.org.kernagic'
p2
(dp3
S'lstem'
p4
I0
sS'rstem'
p5
I0
ssS'com.typemytype.robofont.layerData'
p6
(dp7
S'b'
(dp8
S'name'
p9
S'guillemotleft'
p10
sS'lib'
p11
(dp12
sS'unicodes'
p13
(tsS'width'
p14
I994
sS'contours'
p15
(tsS'components'
p16
(tsS'anchors'
p17
(tsssS'org.robofab.postScriptHintData'
p18
(dp19
s."
LayerCount: 2
Fore
SplineSet
362 70 m 257
 442 70 l 257
 311 272 l 257
 445 474 l 257
 363 474 l 257
 219 271 l 257
 362 70 l 257
179 70 m 257
 260 70 l 257
 128 272 l 257
 263 474 l 257
 181 474 l 257
 36 271 l 257
 179 70 l 257
EndSplineSet
EndChar

StartChar: guillemotright
Encoding: 122 187 232
Width: 492
VWidth: 0
GlyphClass: 2
Flags: HW
PickledData: "(dp1
S'org.pippin.gimp.org.kernagic'
p2
(dp3
S'lstem'
p4
I0
sS'rstem'
p5
I0
ssS'com.typemytype.robofont.layerData'
p6
(dp7
sS'org.robofab.postScriptHintData'
p8
(dp9
s."
LayerCount: 2
Fore
SplineSet
302 70 m 257
 447 272 l 257
 302 474 l 257
 221 474 l 257
 354 272 l 257
 222 70 l 257
 302 70 l 257
122 70 m 257
 266 272 l 257
 122 474 l 257
 40 474 l 257
 173 272 l 257
 41 70 l 257
 122 70 l 257
EndSplineSet
EndChar

StartChar: guilsinglleft
Encoding: 457 8249 233
Width: 335
VWidth: 0
GlyphClass: 2
Flags: HW
PickledData: "(dp1
S'org.robofab.postScriptHintData'
p2
(dp3
s."
LayerCount: 2
Fore
SplineSet
195 75 m 257
 278 75 l 257
 146 275 l 257
 282 477 l 257
 198 477 l 257
 59 274 l 257
 195 75 l 257
EndSplineSet
EndChar

StartChar: guilsinglright
Encoding: 458 8250 234
Width: 374
VWidth: 0
GlyphClass: 2
Flags: HW
PickledData: "(dp1
S'org.pippin.gimp.org.kernagic'
p2
(dp3
S'lstem'
p4
I0
sS'rstem'
p5
I0
ssS'com.typemytype.robofont.layerData'
p6
(dp7
S'b'
(dp8
S'name'
p9
S'guilsinglright'
p10
sS'lib'
p11
(dp12
sS'unicodes'
p13
(tsS'width'
p14
I766
sS'contours'
p15
(tsS'components'
p16
(tsS'anchors'
p17
(tsssS'org.robofab.postScriptHintData'
p18
(dp19
s."
LayerCount: 2
Fore
SplineSet
73 75 m 257
 156 75 l 257
 298 280 l 257
 157 488 l 257
 73 488 l 257
 208 280 l 257
 73 75 l 257
EndSplineSet
EndChar

StartChar: h
Encoding: 72 104 235
Width: 596
VWidth: 0
GlyphClass: 2
Flags: HW
PickledData: "(dp1
S'org.pippin.gimp.org.kernagic'
p2
(dp3
S'lstem'
p4
I0
sS'rstem'
p5
I0
ssS'com.typemytype.robofont.layerData'
p6
(dp7
sS'com.fontlab.hintData'
p8
(dp9
S'vhints'
p10
((dp11
S'position'
p12
I193
sS'width'
p13
I122
s(dp14
g12
I910
sg13
I122
stp15
sS'hhints'
p16
((dp17
g12
I982
sg13
I92
stp18
ssS'org.robofab.postScriptHintData'
p19
(dp20
s."
HStem: 479 45
VStem: 94 60 444 60
AnchorPoint: "top" 312 694 basechar 0
LayerCount: 2
Fore
SplineSet
79 0 m 257
 185 0 l 257
 185 293 l 258
 185 384 220 464 323 464 c 256
 393 464 420 419 420 319 c 258
 420 0 l 257
 527 0 l 257
 527 328 l 258
 527 462 467 540 352 540 c 256
 273 540 215 506 182 428 c 257
 185 562 l 257
 185 762 l 257
 79 752 l 257
 79 0 l 257
EndSplineSet
EndChar

StartChar: hungarumlaut
Encoding: 406 733 238
Width: 413
VWidth: 0
GlyphClass: 4
Flags: HW
PickledData: "(dp1
S'org.robofab.postScriptHintData'
p2
(dp3
sS'com.typemytype.robofont.layerData'
p4
(dp5
s."
AnchorPoint: "top" 175 522 mark 0
LayerCount: 2
Fore
SplineSet
219 610 m 257
 277 610 l 257
 392 787 l 257
 291 787 l 257
 219 610 l 257
73 610 m 257
 133 610 l 257
 231 787 l 257
 140 787 l 257
 73 610 l 257
EndSplineSet
EndChar

StartChar: hyphen
Encoding: 13 45 239
Width: 430
VWidth: 0
GlyphClass: 4
Flags: HW
PickledData: "(dp1
S'org.pippin.gimp.org.kernagic'
p2
(dp3
S'lstem'
p4
I0
sS'rstem'
p5
I0
ssS'com.typemytype.robofont.layerData'
p6
(dp7
sS'org.robofab.postScriptHintData'
p8
(dp9
s."
LayerCount: 2
Fore
SplineSet
81 246 m 257
 347 246 l 257
 347 323 l 257
 81 323 l 257
 81 246 l 257
EndSplineSet
EndChar

StartChar: i
Encoding: 73 105 240
Width: 283
VWidth: 0
GlyphClass: 2
Flags: HW
PickledData: "(dp1
S'org.robofab.postScriptHintData'
p2
(dp3
sS'com.typemytype.robofont.layerData'
p4
(dp5
s."
LayerCount: 2
Fore
SplineSet
218 701 m 256
 218 742 191 768 146 768 c 256
 101 768 75 742 75 701 c 256
 75 659 101 632 146 632 c 256
 191 632 218 659 218 701 c 256
91 528 m 257
 91 0 l 257
 198 0 l 257
 198 528 l 257
 91 528 l 257
EndSplineSet
EndChar

StartChar: infinity
Encoding: 475 8734 251
Width: 822
VWidth: 0
GlyphClass: 2
Flags: HW
PickledData: "(dp1
S'org.pippin.gimp.org.kernagic'
p2
(dp3
S'lstem'
p4
I0
sS'rstem'
p5
I0
ssS'com.typemytype.robofont.layerData'
p6
(dp7
S'b'
(dp8
S'name'
p9
S'infinity'
p10
sS'lib'
p11
(dp12
sS'unicodes'
p13
(tsS'width'
p14
I1647
sS'contours'
p15
(tsS'components'
p16
(tsS'anchors'
p17
(tsssS'org.robofab.postScriptHintData'
p18
(dp19
s."
LayerCount: 2
Fore
SplineSet
713 324 m 256
 713 251 680 195 611 195 c 256
 555 195 514 234 458 311 c 257
 500 372 548 426 609 426 c 256
 670 426 713 379 713 324 c 256
366 310 m 257
 323 247 270 195 212 195 c 256
 146 195 103 253 103 311 c 256
 103 373 143 426 209 426 c 256
 272 426 323 378 366 310 c 257
412 363 m 257
 353 444 291 498 209 498 c 256
 114 498 39 419 39 321 c 256
 39 214 102 122 211 122 c 256
 291 122 354 177 412 255 c 257
 478 165 537 122 610 122 c 256
 706 122 781 200 781 312 c 256
 781 419 720 498 611 498 c 256
 528 498 467 441 412 363 c 257
EndSplineSet
EndChar

StartChar: integral
Encoding: 476 8747 252
Width: 451
VWidth: 0
GlyphClass: 2
Flags: HW
PickledData: "(dp1
S'org.pippin.gimp.org.kernagic'
p2
(dp3
S'lstem'
p4
I0
sS'rstem'
p5
I0
ssS'com.typemytype.robofont.layerData'
p6
(dp7
S'b'
(dp8
S'name'
p9
S'integral'
p10
sS'lib'
p11
(dp12
sS'unicodes'
p13
(tsS'width'
p14
I994
sS'contours'
p15
(tsS'components'
p16
(tsS'anchors'
p17
(tsssS'org.robofab.postScriptHintData'
p18
(dp19
s."
LayerCount: 2
Fore
SplineSet
219 568 m 258
 219 -20 l 258
 219 -103 202 -144 145 -144 c 256
 131 -144 115 -141 97 -137 c 257
 97 -205 l 257
 121 -210 143 -213 161 -213 c 256
 256 -213 300 -141 300 -16 c 258
 300 572 l 258
 300 650 313 694 369 694 c 256
 382 694 396 692 412 688 c 257
 412 748 l 257
 387 754 365 757 346 757 c 256
 256 757 219 691 219 568 c 258
EndSplineSet
EndChar

StartChar: j
Encoding: 74 106 255
Width: 296
VWidth: 0
GlyphClass: 2
Flags: HW
PickledData: "(dp1
S'org.robofab.postScriptHintData'
p2
(dp3
sS'com.typemytype.robofont.layerData'
p4
(dp5
s."
LayerCount: 2
Fore
SplineSet
233 701 m 256
 233 742 207 768 162 768 c 256
 117 768 90 742 90 701 c 256
 90 659 117 632 162 632 c 256
 207 632 233 659 233 701 c 256
112 528 m 257
 112 8 l 258
 112 -79 108 -98 33 -119 c 258
 -2 -129 l 257
 21 -210 l 257
 55 -202 l 257
 168 -177 218 -141 218 -8 c 258
 218 528 l 257
 112 528 l 257
EndSplineSet
EndChar

StartChar: k
Encoding: 75 107 257
Width: 547
VWidth: 0
GlyphClass: 2
Flags: HW
PickledData: "(dp1
S'org.pippin.gimp.org.kernagic'
p2
(dp3
S'lstem'
p4
I0
sS'rstem'
p5
I671
ssS'com.typemytype.robofont.layerData'
p6
(dp7
sS'org.robofab.postScriptHintData'
p8
(dp9
s."
LayerCount: 2
Fore
SplineSet
79 0 m 257
 185 0 l 257
 185 197 l 257
 237 243 l 257
 426 0 l 257
 538 0 l 257
 538 13 l 257
 314 291 l 257
 524 518 l 257
 524 528 l 257
 407 528 l 257
 182 284 l 257
 185 381 l 257
 185 762 l 257
 79 752 l 257
 79 0 l 257
EndSplineSet
EndChar

StartChar: kgreenlandic
Encoding: 247 312 259
Width: 541
VWidth: 0
GlyphClass: 2
Flags: HW
PickledData: "(dp1
S'org.robofab.postScriptHintData'
p2
(dp3
s."
LayerCount: 2
Fore
SplineSet
70 0 m 257
 165 0 l 257
 165 188 l 257
 220 239 l 257
 413 0 l 257
 519 0 l 257
 519 9 l 257
 290 287 l 257
 503 518 l 257
 503 528 l 257
 394 528 l 257
 162 273 l 257
 165 381 l 257
 165 528 l 257
 70 528 l 257
 70 0 l 257
EndSplineSet
EndChar

StartChar: l
Encoding: 76 108 260
Width: 323
VWidth: 0
GlyphClass: 2
Flags: HW
PickledData: "(dp1
S'org.pippin.gimp.org.kernagic'
p2
(dp3
S'lstem'
p4
I0
sS'rstem'
p5
I238
ssS'com.typemytype.robofont.layerData'
p6
(dp7
sS'com.fontlab.hintData'
p8
(dp9
S'vhints'
p10
((dp11
S'position'
p12
I193
sS'width'
p13
I122
stp14
sS'hhints'
p15
((dp16
g12
I-11
sg13
I87
stp17
ssS'org.robofab.postScriptHintData'
p18
(dp19
s."
HStem: -5 42
VStem: 94 60
AnchorPoint: "top" 165 739 basechar 0
LayerCount: 2
Fore
SplineSet
244 -4 m 257
 281 -4 l 257
 288 70 l 257
 250 72 l 258
 195 76 185 86 185 154 c 258
 185 762 l 257
 79 752 l 257
 79 156 l 258
 79 27 130 -4 237 -4 c 258
 244 -4 l 257
EndSplineSet
EndChar

StartChar: less
Encoding: 28 60 265
Width: 540
VWidth: 0
GlyphClass: 2
Flags: HW
PickledData: "(dp1
S'org.pippin.gimp.org.kernagic'
p2
(dp3
S'lstem'
p4
I0
sS'rstem'
p5
I0
ssS'com.typemytype.robofont.layerData'
p6
(dp7
S'b'
(dp8
S'name'
p9
S'less'
p10
sS'lib'
p11
(dp12
sS'unicodes'
p13
(tsS'width'
p14
I1107
sS'contours'
p15
(tsS'components'
p16
(tsS'anchors'
p17
(tsssS'org.robofab.postScriptHintData'
p18
(dp19
s."
LayerCount: 2
Fore
SplineSet
492 73 m 257
 492 158 l 257
 146 324 l 257
 492 503 l 257
 492 587 l 257
 36 347 l 257
 36 297 l 257
 492 73 l 257
EndSplineSet
EndChar

StartChar: lessequal
Encoding: 479 8804 266
Width: 582
VWidth: 0
GlyphClass: 2
Flags: HW
PickledData: "(dp1
S'org.robofab.postScriptHintData'
p2
(dp3
sS'com.typemytype.robofont.layerData'
p4
(dp5
s."
LayerCount: 2
Fore
SplineSet
61 2 m 257
 518 2 l 257
 518 70 l 257
 61 70 l 257
 61 2 l 257
506 127 m 257
 506 206 l 257
 169 377 l 257
 505 559 l 257
 505 638 l 257
 70 400 l 257
 70 354 l 257
 506 127 l 257
EndSplineSet
EndChar

StartChar: logicalnot
Encoding: 107 172 267
Width: 602
VWidth: 0
GlyphClass: 2
Flags: HW
PickledData: "(dp1
S'org.pippin.gimp.org.kernagic'
p2
(dp3
S'lstem'
p4
I0
sS'rstem'
p5
I0
ssS'com.typemytype.robofont.layerData'
p6
(dp7
sS'org.robofab.postScriptHintData'
p8
(dp9
s."
LayerCount: 2
Fore
SplineSet
50 399 m 257
 50 325 l 257
 451 325 l 257
 451 123 l 257
 523 123 l 257
 523 399 l 257
 50 399 l 257
EndSplineSet
EndChar

StartChar: lozenge
Encoding: 481 9674 268
Width: 575
VWidth: 0
GlyphClass: 2
Flags: HW
PickledData: "(dp1
S'org.pippin.gimp.org.kernagic'
p2
(dp3
S'lstem'
p4
I0
sS'rstem'
p5
I0
ssS'com.typemytype.robofont.layerData'
p6
(dp7
S'b'
(dp8
S'name'
p9
S'lozenge'
p10
sS'lib'
p11
(dp12
sS'unicodes'
p13
(tsS'width'
p14
I1164
sS'contours'
p15
(tsS'components'
p16
(tsS'anchors'
p17
(tsssS'org.robofab.postScriptHintData'
p18
(dp19
s."
LayerCount: 2
Fore
SplineSet
443 371 m 257
 416 320 315 120 287 68 c 257
 260 119 160 320 133 372 c 257
 160 423 263 621 291 672 c 257
 317 620 417 422 443 371 c 257
263 766 m 257
 56 371 l 257
 259 -23 l 257
 313 -23 l 257
 521 371 l 257
 317 766 l 257
 263 766 l 257
EndSplineSet
EndChar

StartChar: m
Encoding: 77 109 270
Width: 902
VWidth: 0
GlyphClass: 2
Flags: HW
PickledData: "(dp1
S'org.pippin.gimp.org.kernagic'
p2
(dp3
S'lstem'
p4
I0
sS'rstem'
p5
I0
ssS'com.typemytype.robofont.layerData'
p6
(dp7
sS'com.fontlab.hintData'
p8
(dp9
S'vhints'
p10
((dp11
S'position'
p12
I193
sS'width'
p13
I122
s(dp14
g12
I193
sg13
I98
s(dp15
g12
I845
sg13
I122
s(dp16
g12
I1483
sg13
I122
stp17
sS'hhints'
p18
((dp19
g12
I982
sg13
I92
stp20
ssS'org.robofab.postScriptHintData'
p21
(dp22
s."
HStem: 479 45
VStem: 94 60 94 48 413 60 724 60
AnchorPoint: "top" 479 528 basechar 0
LayerCount: 2
Fore
SplineSet
508 294 m 258
 508 400 574 464 636 464 c 256
 712 464 727 392 727 312 c 258
 727 0 l 257
 833 0 l 257
 833 338 l 258
 833 467 773 540 663 540 c 256
 584 540 524 499 491 421 c 257
 468 498 412 540 335 540 c 256
 263 540 206 502 175 429 c 257
 166 528 l 257
 77 528 l 257
 77 0 l 257
 183 0 l 257
 183 310 l 257
 192 402 237 464 309 464 c 256
 375 464 402 416 402 299 c 258
 402 0 l 257
 508 0 l 257
 508 294 l 258
EndSplineSet
EndChar

StartChar: macron
Encoding: 110 175 271
Width: 548
VWidth: 0
GlyphClass: 4
Flags: HW
PickledData: "(dp1
S'org.robofab.postScriptHintData'
p2
(dp3
sS'com.typemytype.robofont.layerData'
p4
(dp5
s."
AnchorPoint: "top" 274 522 mark 0
LayerCount: 2
Fore
SplineSet
119 642 m 257
 417 642 l 257
 417 696 l 257
 119 696 l 257
 119 642 l 257
EndSplineSet
EndChar

StartChar: minus
Encoding: 471 8722 273
Width: 575
VWidth: 0
GlyphClass: 2
Flags: HW
PickledData: "(dp1
S'org.pippin.gimp.org.kernagic'
p2
(dp3
S'lstem'
p4
I0
sS'rstem'
p5
I0
ssS'com.typemytype.robofont.layerData'
p6
(dp7
sS'org.robofab.postScriptHintData'
p8
(dp9
s."
LayerCount: 2
Fore
SplineSet
50 325 m 257
 50 249 l 257
 529 249 l 257
 529 325 l 257
 50 325 l 257
EndSplineSet
EndChar

StartChar: multiply
Encoding: 150 215 274
Width: 485
VWidth: 0
GlyphClass: 2
Flags: HW
PickledData: "(dp1
S'org.pippin.gimp.org.kernagic'
p2
(dp3
S'lstem'
p4
I0
sS'rstem'
p5
I0
ssS'com.typemytype.robofont.layerData'
p6
(dp7
sS'org.robofab.postScriptHintData'
p8
(dp9
s."
LayerCount: 2
Fore
SplineSet
53 454 m 257
 189 306 l 257
 50 156 l 257
 101 102 l 257
 242 250 l 257
 381 102 l 257
 432 157 l 257
 432 157 312 288 294 306 c 257
 431 452 l 257
 378 506 l 257
 242 360 l 257
 104 508 l 257
 53 454 l 257
EndSplineSet
EndChar

StartChar: n
Encoding: 78 110 275
Width: 594
VWidth: 0
GlyphClass: 2
Flags: HW
PickledData: "(dp1
S'org.pippin.gimp.org.kernagic'
p2
(dp3
S'lstem'
p4
I0
sS'rstem'
p5
I0
ssS'com.typemytype.robofont.layerData'
p6
(dp7
sS'com.fontlab.hintData'
p8
(dp9
S'vhints'
p10
((dp11
S'position'
p12
I193
sS'width'
p13
I122
s(dp14
g12
I903
sg13
I122
stp15
sS'hhints'
p16
((dp17
g12
I0
sg13
I22
s(dp18
g12
I982
sg13
I92
s(dp19
g12
I1034
sg13
I21
stp20
ssS'org.robofab.postScriptHintData'
p21
(dp22
s."
HStem: 0 11 479 45 505 10
VStem: 94 60 441 60
AnchorPoint: "top" 341 528 basechar 0
LayerCount: 2
Fore
SplineSet
77 0 m 257
 184 0 l 257
 184 300 l 258
 184 394 227 464 323 464 c 256
 395 464 418 411 418 321 c 258
 418 0 l 257
 524 0 l 257
 524 320 l 258
 524 460 469 540 350 540 c 256
 261 540 206 497 176 429 c 257
 167 528 l 257
 77 528 l 257
 77 0 l 257
EndSplineSet
EndChar

StartChar: nine
Encoding: 25 57 280
Width: 626
VWidth: 0
GlyphClass: 2
Flags: HW
PickledData: "(dp1
S'org.pippin.gimp.org.kernagic'
p2
(dp3
S'lstem'
p4
I0
sS'rstem'
p5
I0
ssS'com.typemytype.robofont.layerData'
p6
(dp7
sS'org.robofab.postScriptHintData'
p8
(dp9
s."
LayerCount: 2
Fore
SplineSet
465 495 m 256
 465 388 386 348 322 348 c 256
 235 348 188 412 188 495 c 256
 188 575 240 641 328 641 c 256
 416 641 465 575 465 495 c 256
169 0 m 257
 285 0 l 257
 466 238 l 258
 528 320 570 389 570 490 c 256
 570 615 482 721 328 721 c 256
 180 721 83 624 83 495 c 256
 83 358 180 275 292 275 c 256
 330 275 369 286 400 305 c 257
 324 206 246 110 169 12 c 257
 169 0 l 257
EndSplineSet
EndChar

StartChar: notequal
Encoding: 478 8800 281
Width: 541
VWidth: 0
GlyphClass: 2
Flags: HW
PickledData: "(dp1
S'org.pippin.gimp.org.kernagic'
p2
(dp3
S'lstem'
p4
I0
sS'rstem'
p5
I0
ssS'com.typemytype.robofont.layerData'
p6
(dp7
S'b'
(dp8
S'name'
p9
S'notequal'
p10
sS'lib'
p11
(dp12
sS'unicodes'
p13
(tsS'width'
p14
I1079
sS'contours'
p15
(tsS'components'
p16
(tsS'anchors'
p17
(tsssS'org.robofab.postScriptHintData'
p18
(dp19
s."
LayerCount: 2
Fore
SplineSet
161 22 m 257
 229 167 l 257
 497 167 l 257
 493 235 l 257
 260 235 l 257
 331 375 l 257
 497 375 l 257
 492 445 l 257
 361 445 l 257
 417 576 l 257
 357 584 l 257
 291 445 l 257
 31 445 l 257
 36 375 l 257
 261 375 l 257
 191 235 l 257
 32 235 l 257
 36 167 l 257
 160 167 l 257
 103 33 l 257
 161 22 l 257
EndSplineSet
EndChar

StartChar: numbersign
Encoding: 3 35 283
Width: 561
VWidth: 0
GlyphClass: 2
Flags: HW
PickledData: "(dp1
S'org.pippin.gimp.org.kernagic'
p2
(dp3
S'lstem'
p4
I0
sS'rstem'
p5
I0
ssS'com.typemytype.robofont.layerData'
p6
(dp7
sS'org.robofab.postScriptHintData'
p8
(dp9
s."
LayerCount: 2
Fore
SplineSet
194 267 m 257
 236 478 l 257
 373 478 l 257
 331 267 l 257
 194 267 l 257
81 -7 m 257
 141 -7 l 257
 184 215 l 257
 321 215 l 257
 278 -7 l 257
 337 -7 l 257
 381 215 l 257
 484 215 l 257
 492 267 l 257
 391 267 l 257
 432 478 l 257
 529 478 l 257
 537 529 l 257
 442 529 l 257
 487 749 l 257
 428 749 l 257
 382 529 l 257
 246 529 l 257
 291 749 l 257
 230 749 l 257
 185 529 l 257
 87 529 l 257
 80 478 l 257
 175 478 l 257
 134 267 l 257
 39 267 l 257
 32 215 l 257
 124 215 l 257
 81 -7 l 257
EndSplineSet
EndChar

StartChar: o
Encoding: 79 111 284
Width: 593
VWidth: 0
GlyphClass: 2
Flags: HW
PickledData: "(dp1
S'org.pippin.gimp.org.kernagic'
p2
(dp3
S'lstem'
p4
I0
sS'rstem'
p5
I0
ssS'com.fontlab.hintData'
p6
(dp7
S'vhints'
p8
((dp9
S'position'
p10
I128
sS'width'
p11
I120
s(dp12
g10
I982
sg11
I120
stp13
sS'hhints'
p14
((dp15
g10
I-19
sg11
I92
s(dp16
g10
I982
sg11
I92
stp17
ssS'com.typemytype.robofont.guides'
p18
((dp19
S'y'
I1093
sS'x'
I582
sS'magnetic'
p20
I5
sS'angle'
p21
F90
sS'isGlobal'
p22
I00
stp23
sS'com.typemytype.robofont.layerData'
p24
(dp25
sS'org.robofab.postScriptHintData'
p26
(dp27
s."
HStem: -9 45 479 45
VStem: 62 59 479 59
AnchorPoint: "top" 297 528 basechar 0
LayerCount: 2
Fore
SplineSet
297 -10 m 256
 453 -10 542 101 542 265 c 256
 542 431 454 540 297 540 c 256
 140 540 52 431 52 265 c 256
 52 101 141 -10 297 -10 c 256
297 65 m 256
 202 65 160 145 160 265 c 256
 160 386 203 464 297 464 c 256
 391 464 433 386 433 265 c 256
 433 146 391 65 297 65 c 256
EndSplineSet
Substitution2: "Single Substitution lookup 4 subtable" ordmasculine
EndChar

StartChar: oe
Encoding: 274 339 289
Width: 925
VWidth: 0
GlyphClass: 2
Flags: HW
PickledData: "(dp1
S'org.pippin.gimp.org.kernagic'
p2
(dp3
S'lstem'
p4
I0
sS'rstem'
p5
I0
ssS'com.typemytype.robofont.layerData'
p6
(dp7
S'b'
(dp8
S'name'
p9
S'oe'
p10
sS'lib'
p11
(dp12
sS'unicodes'
p13
(tsS'width'
p14
F1915.3599999999999
sS'contours'
p15
(tsS'components'
p16
(tsS'anchors'
p17
(tsssS'org.robofab.postScriptHintData'
p18
(dp19
s."
LayerCount: 2
Fore
SplineSet
529 305 m 257
 537 408 598 466 675 466 c 256
 753 466 793 413 795 305 c 257
 529 305 l 257
288 64 m 256
 189 64 146 146 146 265 c 256
 146 386 189 465 288 465 c 256
 387 465 430 386 430 265 c 256
 430 146 387 64 288 64 c 256
878 296 m 258
 878 444 803 539 672 539 c 256
 595 539 515 491 481 421 c 257
 451 491 376 539 288 539 c 256
 135 539 48 432 48 265 c 256
 48 100 136 -9 288 -9 c 256
 375 -9 452 42 480 111 c 257
 514 40 601 -9 687 -9 c 256
 763 -9 827 15 866 44 c 257
 842 109 l 257
 835 109 l 257
 799 85 756 64 697 64 c 256
 612 64 532 110 527 241 c 257
 874 241 l 257
 874 241 878 269 878 290 c 258
 878 296 l 258
EndSplineSet
EndChar

StartChar: ogonek
Encoding: 404 731 290
Width: 374
VWidth: 0
GlyphClass: 4
Flags: HW
PickledData: "(dp1
S'org.pippin.gimp.org.kernagic'
p2
(dp3
S'lstem'
p4
I0
sS'rstem'
p5
I0
ssS'com.typemytype.robofont.layerData'
p6
(dp7
sS'org.robofab.postScriptHintData'
p8
(dp9
s."
LayerCount: 2
Fore
SplineSet
217 -209 m 256
 243 -209 274 -202 294 -193 c 257
 292 -135 l 257
 284 -139 258 -148 236 -148 c 256
 215 -148 197 -134 197 -109 c 256
 197 -73 232 -22 264 2 c 257
 219 2 l 257
 172 -19 122 -71 122 -130 c 256
 122 -180 158 -209 217 -209 c 256
EndSplineSet
EndChar

StartChar: one
Encoding: 17 49 294
Width: 626
VWidth: 0
GlyphClass: 2
Flags: HW
PickledData: "(dp1
S'org.pippin.gimp.org.kernagic'
p2
(dp3
S'lstem'
p4
I0
sS'rstem'
p5
I0
ssS'com.typemytype.robofont.layerData'
p6
(dp7
sS'org.robofab.postScriptHintData'
p8
(dp9
s."
LayerCount: 2
Fore
SplineSet
96 0 m 257
 562 0 l 257
 562 77 l 257
 395 77 l 257
 395 711 l 257
 296 711 l 257
 255 682 149 642 101 630 c 257
 101 551 l 257
 142 556 230 585 284 614 c 257
 284 77 l 257
 96 77 l 257
 96 0 l 257
EndSplineSet
EndChar

StartChar: onehalf
Encoding: 124 189 295
Width: 883
VWidth: 0
GlyphClass: 3
Flags: HW
PickledData: "(dp1
S'org.pippin.gimp.org.kernagic'
p2
(dp3
S'lstem'
p4
I0
sS'rstem'
p5
I0
ssS'com.typemytype.robofont.layerData'
p6
(dp7
sS'org.robofab.postScriptHintData'
p8
(dp9
s."
LayerCount: 2
Fore
SplineSet
186 0 m 257
 261 0 l 257
 714 725 l 257
 640 725 l 257
 186 0 l 257
69 291 m 257
 288 291 l 257
 288 350 l 257
 219 350 l 257
 219 725 l 257
 159 725 l 257
 140 709 82 681 64 673 c 257
 64 613 l 257
 74 617 125 638 143 649 c 257
 143 350 l 257
 69 350 l 257
 69 291 l 257
576 0 m 257
 831 0 l 257
 833 61 l 257
 661 61 l 257
 748 142 l 258
 810 199 837 238 837 299 c 256
 837 376 780 427 694 427 c 256
 632 427 578 395 551 350 c 257
 591 307 l 257
 619 344 654 362 693 362 c 256
 731 362 763 340 763 297 c 256
 763 265 748 236 700 187 c 257
 572 59 l 257
 576 0 l 257
EndSplineSet
Ligature2: "fracDiagonalFractionslookup11 subtable" one slash two
EndChar

StartChar: onequarter
Encoding: 123 188 296
Width: 835
VWidth: 0
GlyphClass: 3
Flags: HW
PickledData: "(dp1
S'org.pippin.gimp.org.kernagic'
p2
(dp3
S'lstem'
p4
I0
sS'rstem'
p5
I0
ssS'com.typemytype.robofont.layerData'
p6
(dp7
sS'org.robofab.postScriptHintData'
p8
(dp9
s."
LayerCount: 2
Fore
SplineSet
559 149 m 257
 676 331 l 257
 676 149 l 257
 559 149 l 257
176 0 m 257
 253 0 l 257
 708 725 l 257
 632 725 l 257
 176 0 l 257
677 0 m 257
 745 0 l 257
 745 91 l 257
 801 91 l 257
 800 149 l 257
 745 149 l 257
 745 421 l 257
 672 421 l 257
 484 145 l 257
 484 91 l 257
 677 91 l 257
 677 0 l 257
63 291 m 257
 278 291 l 257
 278 354 l 257
 211 354 l 257
 211 725 l 257
 151 725 l 257
 132 709 76 681 58 673 c 257
 58 609 l 257
 68 613 119 635 137 646 c 257
 137 354 l 257
 63 354 l 257
 63 291 l 257
EndSplineSet
Ligature2: "fracDiagonalFractionslookup11 subtable" one slash four
EndChar

StartChar: ordmasculine
Encoding: 121 186 298
Width: 471
VWidth: 0
GlyphClass: 2
Flags: HW
PickledData: "(dp1
S'org.pippin.gimp.org.kernagic'
p2
(dp3
S'lstem'
p4
I0
sS'rstem'
p5
I0
ssS'com.typemytype.robofont.layerData'
p6
(dp7
S'b'
(dp8
S'name'
p9
S'ordmasculine'
p10
sS'lib'
p11
(dp12
sS'unicodes'
p13
(tsS'width'
p14
I965
sS'contours'
p15
(tsS'components'
p16
(tsS'anchors'
p17
(tsssS'org.robofab.postScriptHintData'
p18
(dp19
s."
LayerCount: 2
Fore
SplineSet
330 538 m 256
 330 456 299 411 234 411 c 256
 173 411 143 456 143 539 c 256
 143 622 173 669 234 669 c 256
 296 669 330 621 330 538 c 256
65 539 m 256
 65 431 124 349 234 349 c 256
 338 349 404 432 404 539 c 256
 404 650 347 731 234 731 c 256
 124 731 65 649 65 539 c 256
EndSplineSet
EndChar

StartChar: oslash
Encoding: 183 248 299
Width: 593
VWidth: 0
GlyphClass: 2
Flags: HW
PickledData: "(dp1
S'org.pippin.gimp.org.kernagic'
p2
(dp3
S'lstem'
p4
I0
sS'rstem'
p5
I0
ssS'com.typemytype.robofont.layerData'
p6
(dp7
sS'org.robofab.postScriptHintData'
p8
(dp9
s."
LayerCount: 2
Fore
SplineSet
98 -61 m 257
 131 -81 l 257
 487 587 l 257
 451 607 l 257
 98 -61 l 257
EndSplineSet
Refer: 284 111 N 1 0 0 1 0 0 2
EndChar

StartChar: p
Encoding: 80 112 302
Width: 597
VWidth: 0
GlyphClass: 2
Flags: HW
PickledData: "(dp1
S'org.pippin.gimp.org.kernagic'
p2
(dp3
S'lstem'
p4
I0
sS'rstem'
p5
I0
ssS'com.typemytype.robofont.layerData'
p6
(dp7
sS'com.fontlab.hintData'
p8
(dp9
S'vhints'
p10
((dp11
S'position'
p12
I193
sS'width'
p13
I122
s(dp14
g12
I193
sg13
I97
s(dp15
g12
I1009
sg13
I122
stp16
sS'hhints'
p17
((dp18
g12
I-19
sg13
I92
s(dp19
g12
I982
sg13
I92
stp20
ssS'org.robofab.postScriptHintData'
p21
(dp22
s."
HStem: -9 45 479 45
VStem: 94 60 94 47 493 60
AnchorPoint: "top" 325 528 basechar 0
LayerCount: 2
Fore
SplineSet
308 65 m 256
 254 65 209 86 180 126 c 257
 180 298 l 257
 184 397 225 464 317 464 c 256
 405 464 438 388 438 265 c 256
 438 133 394 65 308 65 c 256
77 -226 m 257
 183 -226 l 257
 183 -32 l 257
 180 45 l 257
 211 12 259 -10 324 -10 c 256
 464 -10 545 104 545 265 c 256
 545 427 479 540 336 540 c 256
 255 540 200 495 175 422 c 257
 168 528 l 257
 77 528 l 257
 77 -226 l 257
EndSplineSet
EndChar

StartChar: paragraph
Encoding: 117 182 303
Width: 569
VWidth: 0
GlyphClass: 2
Flags: HW
PickledData: "(dp1
S'org.pippin.gimp.org.kernagic'
p2
(dp3
S'lstem'
p4
I0
sS'rstem'
p5
I0
ssS'com.typemytype.robofont.layerData'
p6
(dp7
sS'org.robofab.postScriptHintData'
p8
(dp9
s."
LayerCount: 2
Fore
SplineSet
320 647 m 257
 394 647 l 257
 394 -105 l 257
 462 -105 l 257
 462 711 l 257
 282 711 l 258
 113 711 61 630 61 537 c 256
 61 449 114 365 252 365 c 257
 252 -105 l 257
 320 -105 l 257
 320 647 l 257
EndSplineSet
EndChar

StartChar: parenright
Encoding: 9 41 305
Width: 388
VWidth: 0
GlyphClass: 2
Flags: HW
PickledData: "(dp1
S'org.pippin.gimp.org.kernagic'
p2
(dp3
S'lstem'
p4
I0
sS'rstem'
p5
I0
ssS'com.typemytype.robofont.layerData'
p6
(dp7
S'b'
(dp8
S'name'
p9
S'parenright'
p10
sS'lib'
p11
(dp12
sS'unicodes'
p13
(tsS'width'
p14
I766
sS'contours'
p15
(tsS'components'
p16
(tsS'anchors'
p17
(tsssS'org.robofab.postScriptHintData'
p18
(dp19
s."
LayerCount: 2
Fore
SplineSet
288 328 m 256
 288 491 239 655 159 777 c 257
 78 777 l 257
 78 760 l 257
 158 635 201 497 201 328 c 256
 201 159 158 20 78 -105 c 257
 78 -121 l 257
 159 -121 l 257
 239 1 288 165 288 328 c 256
EndSplineSet
EndChar

StartChar: partialdiff
Encoding: 466 8706 306
Width: 597
VWidth: 0
GlyphClass: 2
Flags: HW
PickledData: "(dp1
S'org.robofab.postScriptHintData'
p2
(dp3
s."
LayerCount: 2
Fore
SplineSet
245 48 m 256
 209 48 191 83 191 130 c 256
 191 232 273 394 427 404 c 257
 417 264 363 48 245 48 c 256
238 -10 m 256
 410 -10 525 188 525 446 c 256
 525 643 410 762 268 762 c 256
 221 762 170 748 120 720 c 257
 141 667 l 257
 178 685 213 694 247 694 c 256
 351 694 431 611 431 473 c 256
 431 467 430 461 430 455 c 257
 207 452 83 278 83 144 c 256
 83 60 133 -10 238 -10 c 256
EndSplineSet
EndChar

StartChar: percent
Encoding: 5 37 307
Width: 851
VWidth: 0
GlyphClass: 2
Flags: HW
PickledData: "(dp1
S'org.pippin.gimp.org.kernagic'
p2
(dp3
S'lstem'
p4
I0
sS'rstem'
p5
I0
ssS'com.typemytype.robofont.layerData'
p6
(dp7
S'b'
(dp8
S'name'
p9
S'percent'
p10
sS'lib'
p11
(dp12
sS'unicodes'
p13
(tsS'width'
p14
I1563
sS'contours'
p15
(tsS'components'
p16
(tsS'anchors'
p17
(tsssS'org.robofab.postScriptHintData'
p18
(dp19
s."
LayerCount: 2
Fore
SplineSet
621 -5 m 256
 734 -5 784 78 784 186 c 256
 784 295 735 376 621 376 c 256
 509 376 459 293 459 186 c 256
 459 78 507 -5 621 -5 c 256
622 54 m 256
 551 54 531 111 531 187 c 256
 531 261 551 317 622 317 c 256
 692 317 713 264 713 187 c 256
 713 113 693 54 622 54 c 256
166 0 m 257
 246 0 l 257
 650 721 l 257
 575 721 l 257
 166 0 l 257
196 350 m 256
 309 350 359 434 359 541 c 256
 359 650 310 730 196 730 c 256
 84 730 38 649 38 541 c 256
 38 434 82 350 196 350 c 256
197 409 m 256
 126 409 105 466 105 542 c 256
 105 616 126 671 197 671 c 256
 267 671 288 618 288 542 c 256
 288 468 268 409 197 409 c 256
EndSplineSet
EndChar

StartChar: period
Encoding: 14 46 308
Width: 319
VWidth: 0
GlyphClass: 2
Flags: HW
PickledData: "(dp1
S'org.pippin.gimp.org.kernagic'
p2
(dp3
S'lstem'
p4
I0
sS'rstem'
p5
I0
ssS'com.typemytype.robofont.layerData'
p6
(dp7
S'b'
(dp8
S'name'
p9
S'period'
p10
sS'lib'
p11
(dp12
sS'unicodes'
p13
(tsS'width'
p14
I624
sS'contours'
p15
(tsS'components'
p16
(tsS'anchors'
p17
(tsssS'org.robofab.postScriptHintData'
p18
(dp19
s."
LayerCount: 2
Fore
SplineSet
160 -5 m 256
 198 -5 218 17 218 59 c 256
 218 100 198 122 160 122 c 256
 121 122 101 100 101 59 c 256
 101 17 121 -5 160 -5 c 256
EndSplineSet
EndChar

StartChar: periodcentered
Encoding: 118 183 309
Width: 311
VWidth: 0
GlyphClass: 2
Flags: HW
PickledData: "(dp1
S'org.pippin.gimp.org.kernagic'
p2
(dp3
S'lstem'
p4
I0
sS'rstem'
p5
I0
ssS'com.typemytype.robofont.layerData'
p6
(dp7
S'b'
(dp8
S'name'
p9
S'periodcentered'
p10
sS'lib'
p11
(dp12
sS'unicodes'
p13
(tsS'width'
p14
I653
sS'contours'
p15
(tsS'components'
p16
(tsS'anchors'
p17
(tsssS'org.robofab.postScriptHintData'
p18
(dp19
s."
LayerCount: 2
Fore
SplineSet
179 242 m 256
 215 242 241 267 241 305 c 256
 241 342 215 367 179 367 c 256
 142 367 116 342 116 305 c 256
 116 267 142 242 179 242 c 256
EndSplineSet
EndChar

StartChar: perthousand
Encoding: 456 8240 310
Width: 1228
VWidth: 0
GlyphClass: 2
Flags: HW
PickledData: "(dp1
S'org.pippin.gimp.org.kernagic'
p2
(dp3
S'lstem'
p4
I0
sS'rstem'
p5
I0
ssS'com.typemytype.robofont.layerData'
p6
(dp7
S'b'
(dp8
S'name'
p9
S'perthousand'
p10
sS'lib'
p11
(dp12
sS'unicodes'
p13
(tsS'width'
p14
I2251
sS'contours'
p15
(tsS'components'
p16
(tsS'anchors'
p17
(tsssS'org.robofab.postScriptHintData'
p18
(dp19
s."
LayerCount: 2
Fore
SplineSet
998 -5 m 256
 1111 -5 1161 78 1161 186 c 256
 1161 295 1112 376 998 376 c 256
 886 376 836 293 836 186 c 256
 836 78 884 -5 998 -5 c 256
999 54 m 256
 928 54 907 111 907 187 c 256
 907 261 928 317 999 317 c 256
 1069 317 1089 264 1089 187 c 256
 1089 113 1069 54 999 54 c 256
EndSplineSet
Refer: 307 37 N 1 0 0 1 10 0 2
EndChar

StartChar: pi
Encoding: 417 960 311
Width: 709
VWidth: 0
GlyphClass: 2
Flags: HW
PickledData: "(dp1
S'org.robofab.postScriptHintData'
p2
(dp3
sS'com.typemytype.robofont.layerData'
p4
(dp5
s."
LayerCount: 2
Fore
SplineSet
559 -6 m 256
 598 -6 629 5 646 22 c 257
 646 85 l 257
 632 80 609 71 588 71 c 256
 553 71 530 105 530 185 c 256
 530 240 534 342 545 436 c 257
 663 436 l 257
 663 528 l 257
 221 528 l 258
 103 528 67 478 67 371 c 257
 115 371 l 257
 121 409 140 436 180 436 c 258
 235 436 l 257
 203 193 l 258
 189 86 126 56 73 56 c 257
 73 2 l 257
 244 2 280 53 285 161 c 258
 297 436 l 257
 477 436 l 257
 460 328 441 202 441 127 c 256
 441 38 477 -6 559 -6 c 256
EndSplineSet
EndChar

StartChar: plus
Encoding: 11 43 312
Width: 562
VWidth: 0
GlyphClass: 2
Flags: HW
PickledData: "(dp1
S'org.pippin.gimp.org.kernagic'
p2
(dp3
S'lstem'
p4
I0
sS'rstem'
p5
I0
ssS'com.typemytype.robofont.layerData'
p6
(dp7
S'b'
(dp8
S'name'
p9
S'plus'
p10
sS'lib'
p11
(dp12
sS'unicodes'
p13
(tsS'width'
p14
I1136
sS'contours'
p15
(tsS'components'
p16
(tsS'anchors'
p17
(tsssS'org.robofab.postScriptHintData'
p18
(dp19
s."
LayerCount: 2
Fore
SplineSet
232 575 m 257
 232 391 l 257
 56 391 l 257
 56 299 l 257
 231 299 l 257
 231 112 l 257
 326 112 l 257
 326 299 l 257
 500 299 l 257
 500 391 l 257
 326 391 l 257
 326 575 l 257
 232 575 l 257
EndSplineSet
EndChar

StartChar: plusminus
Encoding: 112 177 313
Width: 554
VWidth: 0
GlyphClass: 2
Flags: HW
PickledData: "(dp1
S'org.pippin.gimp.org.kernagic'
p2
(dp3
S'lstem'
p4
I0
sS'rstem'
p5
I0
ssS'com.typemytype.robofont.layerData'
p6
(dp7
sS'org.robofab.postScriptHintData'
p8
(dp9
s."
LayerCount: 2
Fore
SplineSet
51 69 m 257
 51 0 l 257
 506 0 l 257
 506 69 l 257
 51 69 l 257
238 561 m 257
 238 377 l 257
 59 377 l 257
 59 304 l 257
 238 304 l 257
 238 119 l 257
 314 119 l 257
 314 304 l 257
 491 304 l 257
 491 377 l 257
 313 377 l 257
 313 561 l 257
 238 561 l 257
EndSplineSet
EndChar

StartChar: product
Encoding: 469 8719 314
Width: 755
VWidth: 0
GlyphClass: 2
Flags: HW
PickledData: "(dp1
S'org.pippin.gimp.org.kernagic'
p2
(dp3
S'lstem'
p4
I0
sS'rstem'
p5
I0
ssS'com.typemytype.robofont.layerData'
p6
(dp7
S'b'
(dp8
S'name'
p9
S'product'
p10
sS'lib'
p11
(dp12
sS'unicodes'
p13
(tsS'width'
p14
I1533
sS'contours'
p15
(tsS'components'
p16
(tsS'anchors'
p17
(tsssS'org.robofab.postScriptHintData'
p18
(dp19
s."
LayerCount: 2
Fore
SplineSet
98 736 m 257
 98 0 l 257
 183 0 l 257
 183 661 l 257
 575 661 l 257
 575 0 l 257
 660 0 l 257
 660 736 l 257
 98 736 l 257
EndSplineSet
EndChar

StartChar: q
Encoding: 81 113 315
Width: 594
VWidth: 0
GlyphClass: 2
Flags: HW
PickledData: "(dp1
S'org.pippin.gimp.org.kernagic'
p2
(dp3
S'lstem'
p4
I0
sS'rstem'
p5
I0
ssS'com.typemytype.robofont.layerData'
p6
(dp7
sS'org.robofab.postScriptHintData'
p8
(dp9
s."
LayerCount: 2
Fore
SplineSet
292 65 m 256
 205 65 159 132 159 267 c 256
 159 395 204 464 290 464 c 256
 343 464 387 443 416 401 c 257
 416 120 l 257
 391 85 346 65 292 65 c 256
277 -10 m 256
 326 -10 378 6 415 45 c 257
 414 -14 l 257
 414 -226 l 257
 519 -226 l 257
 519 528 l 257
 428 528 l 257
 424 464 l 257
 396 506 348 540 277 540 c 256
 134 540 51 429 51 267 c 256
 51 103 129 -10 277 -10 c 256
EndSplineSet
EndChar

StartChar: question
Encoding: 31 63 316
Width: 465
VWidth: 0
GlyphClass: 2
Flags: HW
PickledData: "(dp1
S'org.pippin.gimp.org.kernagic'
p2
(dp3
S'lstem'
p4
I0
sS'rstem'
p5
I0
ssS'com.typemytype.robofont.layerData'
p6
(dp7
sS'org.robofab.postScriptHintData'
p8
(dp9
s."
LayerCount: 2
Fore
SplineSet
181 -7 m 256
 222 -7 242 21 242 55 c 256
 242 88 222 116 181 116 c 256
 139 116 118 88 118 55 c 256
 118 21 139 -7 181 -7 c 256
161 218 m 257
 201 214 l 257
 263 384 390 406 390 562 c 256
 390 679 306 731 213 731 c 256
 153 731 97 712 57 679 c 257
 80 602 l 257
 105 618 152 642 199 642 c 256
 259 642 290 608 290 546 c 256
 290 449 181 376 161 218 c 257
EndSplineSet
EndChar

StartChar: quotedbl
Encoding: 2 34 318
Width: 359
VWidth: 0
GlyphClass: 2
Flags: HW
PickledData: "(dp1
S'org.robofab.postScriptHintData'
p2
(dp3
sS'com.typemytype.robofont.layerData'
p4
(dp5
s."
LayerCount: 2
Fore
SplineSet
241 478 m 257
 291 478 l 257
 311 749 l 257
 207 749 l 257
 241 478 l 257
84 478 m 257
 135 478 l 257
 154 749 l 257
 50 749 l 257
 84 478 l 257
EndSplineSet
EndChar

StartChar: quotedblbase
Encoding: 451 8222 319
Width: 392
VWidth: 0
GlyphClass: 2
Flags: HW
PickledData: "(dp1
S'org.robofab.postScriptHintData'
p2
(dp3
s."
LayerCount: 2
Fore
SplineSet
214 -160 m 257
 280 -160 l 257
 336 77 l 257
 237 77 l 257
 214 -160 l 257
53 -160 m 257
 120 -160 l 257
 173 77 l 257
 76 77 l 257
 53 -160 l 257
EndSplineSet
EndChar

StartChar: quotedblleft
Encoding: 449 8220 320
Width: 449
VWidth: 0
GlyphClass: 2
Flags: HW
PickledData: "(dp1
S'org.robofab.postScriptHintData'
p2
(dp3
sS'com.typemytype.robofont.layerData'
p4
(dp5
s."
LayerCount: 2
Fore
SplineSet
252 499 m 257
 357 499 l 257
 379 739 l 257
 308 739 l 257
 252 499 l 257
73 499 m 257
 178 499 l 257
 199 739 l 257
 128 739 l 257
 73 499 l 257
EndSplineSet
EndChar

StartChar: quotedblright
Encoding: 450 8221 321
Width: 449
VWidth: 0
GlyphClass: 2
Flags: HW
PickledData: "(dp1
S'org.robofab.postScriptHintData'
p2
(dp3
sS'com.typemytype.robofont.layerData'
p4
(dp5
s."
LayerCount: 2
Fore
SplineSet
73 499 m 257
 144 499 l 257
 199 739 l 257
 95 739 l 257
 73 499 l 257
252 499 m 257
 324 499 l 257
 379 739 l 257
 274 739 l 257
 252 499 l 257
EndSplineSet
EndChar

StartChar: quoteleft
Encoding: 446 8216 322
Width: 256
VWidth: 0
GlyphClass: 2
Flags: HW
PickledData: "(dp1
S'org.robofab.postScriptHintData'
p2
(dp3
sS'com.typemytype.robofont.layerData'
p4
(dp5
s."
LayerCount: 2
Fore
SplineSet
199 739 m 257
 128 739 l 257
 73 499 l 257
 178 499 l 257
 199 739 l 257
EndSplineSet
EndChar

StartChar: quoteright
Encoding: 447 8217 323
Width: 256
VWidth: 0
GlyphClass: 2
Flags: HW
PickledData: "(dp1
S'org.robofab.postScriptHintData'
p2
(dp3
sS'com.typemytype.robofont.layerData'
p4
(dp5
s."
LayerCount: 2
Fore
SplineSet
73 499 m 257
 144 499 l 257
 199 739 l 257
 95 739 l 257
 73 499 l 257
EndSplineSet
EndChar

StartChar: quotesinglbase
Encoding: 448 8218 324
Width: 230
VWidth: 0
GlyphClass: 2
Flags: HW
PickledData: "(dp1
S'org.robofab.postScriptHintData'
p2
(dp3
s."
LayerCount: 2
Fore
SplineSet
49 -160 m 257
 117 -160 l 257
 173 77 l 257
 74 77 l 257
 49 -160 l 257
EndSplineSet
EndChar

StartChar: quotesingle
Encoding: 7 39 325
Width: 224
VWidth: 0
GlyphClass: 2
Flags: HW
PickledData: "(dp1
S'org.robofab.postScriptHintData'
p2
(dp3
s."
LayerCount: 2
Fore
SplineSet
83 462 m 257
 138 462 l 257
 154 739 l 257
 54 739 l 257
 83 462 l 257
EndSplineSet
EndChar

StartChar: r
Encoding: 82 114 326
Width: 389
VWidth: 0
GlyphClass: 2
Flags: HW
PickledData: "(dp1
S'org.pippin.gimp.org.kernagic'
p2
(dp3
S'lstem'
p4
I0
sS'rstem'
p5
I352
ssS'com.typemytype.robofont.layerData'
p6
(dp7
sS'com.fontlab.hintData'
p8
(dp9
S'vhints'
p10
((dp11
S'position'
p12
I193
sS'width'
p13
I122
s(dp14
g12
I193
sg13
I92
stp15
sS'hhints'
p16
((dp17
g12
I974
sg13
I94
stp18
ssS'org.robofab.postScriptHintData'
p19
(dp20
s."
HStem: 476 46
VStem: 94 60 94 45
AnchorPoint: "top" 221 528 basechar 0
LayerCount: 2
Fore
SplineSet
77 0 m 257
 183 0 l 257
 183 299 l 258
 183 384 236 450 333 450 c 258
 337 450 l 257
 358 449 l 257
 366 531 l 257
 350 534 335 534 321 534 c 256
 264 534 209 506 174 424 c 257
 165 528 l 257
 77 528 l 257
 77 0 l 257
EndSplineSet
EndChar

StartChar: radical
Encoding: 474 8730 328
Width: 586
VWidth: 0
GlyphClass: 2
Flags: HW
PickledData: "(dp1
S'org.pippin.gimp.org.kernagic'
p2
(dp3
S'lstem'
p4
I0
sS'rstem'
p5
I0
ssS'com.typemytype.robofont.layerData'
p6
(dp7
S'b'
(dp8
S'name'
p9
S'radical'
p10
sS'lib'
p11
(dp12
sS'unicodes'
p13
(tsS'width'
p14
I1136
sS'contours'
p15
(tsS'components'
p16
(tsS'anchors'
p17
(tsssS'org.robofab.postScriptHintData'
p18
(dp19
s."
LayerCount: 2
Fore
SplineSet
493 820 m 257
 444 615 344 246 296 41 c 257
 254 180 203 310 157 445 c 257
 21 411 l 257
 29 352 l 257
 101 368 l 257
 263 -80 l 257
 350 -80 l 257
 571 820 l 257
 493 820 l 257
EndSplineSet
EndChar

StartChar: registered
Encoding: 109 174 331
Width: 908
VWidth: 0
GlyphClass: 2
Flags: HW
PickledData: "(dp1
S'org.pippin.gimp.org.kernagic'
p2
(dp3
S'lstem'
p4
I0
sS'rstem'
p5
I0
ssS'com.typemytype.robofont.layerData'
p6
(dp7
sS'org.robofab.postScriptHintData'
p8
(dp9
s."
LayerCount: 2
Fore
SplineSet
447 -15 m 256
 636 -15 815 122 815 355 c 256
 815 588 636 726 447 726 c 256
 258 726 79 588 79 355 c 256
 79 122 258 -15 447 -15 c 256
447 37 m 256
 286 37 139 154 139 355 c 256
 139 555 286 674 447 674 c 256
 608 674 756 555 756 355 c 256
 756 154 608 37 447 37 c 256
367 400 m 257
 367 535 l 257
 442 535 l 258
 519 535 548 530 548 469 c 256
 548 418 524 400 456 400 c 258
 367 400 l 257
304 146 m 257
 366 146 l 257
 366 350 l 257
 452 350 l 257
 455 346 557 146 557 146 c 257
 627 146 l 257
 627 146 521 348 515 356 c 257
 581 367 609 407 609 471 c 256
 609 556 562 587 453 587 c 258
 304 587 l 257
 304 146 l 257
EndSplineSet
EndChar

StartChar: ring
Encoding: 403 730 332
Width: 357
VWidth: 0
GlyphClass: 4
Flags: HW
PickledData: "(dp1
S'org.robofab.postScriptHintData'
p2
(dp3
sS'com.typemytype.robofont.layerData'
p4
(dp5
s."
AnchorPoint: "top" 172 522 mark 0
LayerCount: 2
Fore
SplineSet
172 584 m 256
 230 584 271 627 271 679 c 256
 271 730 231 773 172 773 c 256
 114 773 75 731 75 679 c 256
 75 627 114 584 172 584 c 256
172 628 m 256
 143 628 126 651 126 678 c 256
 126 704 144 729 172 729 c 256
 200 729 220 704 220 678 c 256
 220 651 200 628 172 628 c 256
EndSplineSet
EndChar

StartChar: s
Encoding: 83 115 333
Width: 479
VWidth: 0
GlyphClass: 2
Flags: HW
PickledData: "(dp1
S'org.pippin.gimp.org.kernagic'
p2
(dp3
S'lstem'
p4
I168
sS'rstem'
p5
I620
ssS'com.fontlab.hintData'
p6
(dp7
S'vhints'
p8
((dp9
S'position'
p10
I142
sS'width'
p11
I107
s(dp12
g10
I738
sg11
I104
stp13
sS'hhints'
p14
((dp15
g10
I-19
sg11
I92
s(dp16
g10
I982
sg11
I92
stp17
ssS'com.typemytype.robofont.guides'
p18
((dp19
S'y'
I381
sS'x'
I77
sS'magnetic'
p20
I5
sS'angle'
p21
F90
sS'isGlobal'
p22
I00
stp23
sS'com.typemytype.robofont.layerData'
p24
(dp25
sS'org.robofab.postScriptHintData'
p26
(dp27
s."
HStem: -9 45 479 45
VStem: 69 52 360 51
AnchorPoint: "top" 245 529 basechar 0
LayerCount: 2
Fore
SplineSet
344 149 m 256
 344 93 311 64 249 64 c 256
 202 64 143 79 100 129 c 257
 92 129 l 257
 39 78 l 257
 85 19 161 -10 250 -10 c 256
 355 -10 442 39 442 153 c 256
 442 213 425 262 301 304 c 258
 239 325 l 257
 173 347 161 365 161 396 c 256
 161 438 189 463 254 463 c 256
 306 463 348 443 373 413 c 257
 378 413 l 257
 432 459 l 257
 399 509 335 540 249 540 c 256
 129 540 55 485 55 394 c 256
 55 328 78 285 199 245 c 257
 257 226 l 258
 332 202 344 180 344 149 c 256
EndSplineSet
EndChar

StartChar: section
Encoding: 102 167 339
Width: 519
VWidth: 0
GlyphClass: 2
Flags: HW
PickledData: "(dp1
S'org.pippin.gimp.org.kernagic'
p2
(dp3
S'lstem'
p4
I0
sS'rstem'
p5
I0
ssS'com.typemytype.robofont.layerData'
p6
(dp7
S'b'
(dp8
S'name'
p9
S'section'
p10
sS'lib'
p11
(dp12
sS'unicodes'
p13
(tsS'width'
p14
I1079
sS'contours'
p15
(tsS'components'
p16
(tsS'anchors'
p17
(tsssS'org.robofab.postScriptHintData'
p18
(dp19
s."
LayerCount: 2
Fore
SplineSet
333 287 m 257
 322 292 303 300 250 316 c 257
 181 341 164 353 164 390 c 256
 164 416 174 435 194 446 c 257
 197 444 213 439 266 420 c 256
 333 397 353 373 353 340 c 256
 353 318 345 300 333 287 c 257
250 -10 m 256
 350 -10 432 34 432 149 c 256
 432 191 421 224 393 250 c 257
 417 275 433 309 433 354 c 256
 433 425 405 464 300 500 c 256
 184 540 172 552 172 589 c 256
 172 631 198 655 265 655 c 256
 315 655 363 638 393 623 c 257
 415 690 l 257
 369 715 314 730 256 730 c 256
 151 730 80 680 80 583 c 256
 80 541 94 508 130 480 c 257
 100 454 81 419 81 378 c 256
 81 315 111 276 205 243 c 256
 325 202 344 180 344 145 c 256
 344 91 309 65 250 65 c 256
 196 65 140 85 90 110 c 257
 90 29 l 257
 138 5 198 -10 250 -10 c 256
EndSplineSet
EndChar

StartChar: semicolon
Encoding: 27 59 340
Width: 354
VWidth: 0
GlyphClass: 2
Flags: HW
PickledData: "(dp1
S'org.pippin.gimp.org.kernagic'
p2
(dp3
S'lstem'
p4
I0
sS'rstem'
p5
I0
ssS'com.typemytype.robofont.layerData'
p6
(dp7
sS'org.robofab.postScriptHintData'
p8
(dp9
s."
LayerCount: 2
Fore
SplineSet
183 402 m 256
 225 402 248 431 248 467 c 256
 248 503 225 533 183 533 c 256
 141 533 117 503 117 467 c 256
 117 430 142 402 183 402 c 256
117 -153 m 257
 179 -153 l 257
 237 68 l 257
 237 121 l 257
 136 121 l 257
 136 112 117 -153 117 -153 c 257
EndSplineSet
EndChar

StartChar: seven
Encoding: 23 55 341
Width: 626
VWidth: 0
GlyphClass: 2
Flags: HW
PickledData: "(dp1
S'org.pippin.gimp.org.kernagic'
p2
(dp3
S'lstem'
p4
I0
sS'rstem'
p5
I0
ssS'com.typemytype.robofont.layerData'
p6
(dp7
sS'org.robofab.postScriptHintData'
p8
(dp9
s."
LayerCount: 2
Fore
SplineSet
166 0 m 257
 277 0 l 257
 538 633 l 257
 537 711 l 257
 84 711 l 257
 93 628 l 257
 424 628 l 257
 166 0 l 257
EndSplineSet
EndChar

StartChar: six
Encoding: 22 54 342
Width: 626
VWidth: 0
GlyphClass: 2
Flags: HW
PickledData: "(dp1
S'org.pippin.gimp.org.kernagic'
p2
(dp3
S'lstem'
p4
I0
sS'rstem'
p5
I0
ssS'com.typemytype.robofont.layerData'
p6
(dp7
sS'org.robofab.postScriptHintData'
p8
(dp9
s."
LayerCount: 2
Fore
SplineSet
320 71 m 256
 232 71 184 137 184 217 c 256
 184 323 261 363 322 363 c 256
 407 363 457 303 457 219 c 256
 457 139 408 71 320 71 c 256
321 -10 m 256
 469 -10 562 90 562 218 c 256
 562 355 468 436 358 436 c 256
 307 436 267 417 238 395 c 257
 313 496 388 597 463 699 c 257
 463 711 l 257
 348 711 l 257
 177 475 l 258
 115 390 79 322 79 221 c 256
 79 96 167 -10 321 -10 c 256
EndSplineSet
EndChar

StartChar: slash
Encoding: 15 47 343
Width: 478
VWidth: 0
GlyphClass: 2
Flags: HW
PickledData: "(dp1
S'org.pippin.gimp.org.kernagic'
p2
(dp3
S'lstem'
p4
I0
sS'rstem'
p5
I0
ssS'com.typemytype.robofont.layerData'
p6
(dp7
S'b'
(dp8
S'name'
p9
S'slash'
p10
sS'lib'
p11
(dp12
sS'unicodes'
p13
(tsS'width'
p14
I965
sS'contours'
p15
(tsS'components'
p16
(tsS'anchors'
p17
(tsssS'org.robofab.postScriptHintData'
p18
(dp19
s."
LayerCount: 2
Fore
SplineSet
56 -75 m 257
 136 -75 l 257
 440 762 l 257
 358 762 l 257
 56 -75 l 257
EndSplineSet
EndChar

StartChar: slashbar
Encoding: 65541 -1 344
Width: 364
VWidth: 0
GlyphClass: 4
Flags: HW
PickledData: "(dp1
S'org.pippin.gimp.org.kernagic'
p2
(dp3
S'lstem'
p4
I0
sS'rstem'
p5
I0
ssS'com.typemytype.robofont.layerData'
p6
(dp7
S'b'
(dp8
S'name'
p9
S'slashbar'
p10
sS'lib'
p11
(dp12
sS'unicodes'
p13
(tsS'width'
p14
I908
sS'contours'
p15
(tsS'components'
p16
(tsS'anchors'
p17
(tsssS'org.robofab.postScriptHintData'
p18
(dp19
s."
LayerCount: 2
Fore
SplineSet
85 233 m 257
 383 383 l 257
 383 458 l 257
 85 309 l 257
 85 233 l 257
EndSplineSet
EndChar

StartChar: sterling
Encoding: 98 163 346
Width: 565
VWidth: 0
GlyphClass: 2
Flags: HW
PickledData: "(dp1
S'org.pippin.gimp.org.kernagic'
p2
(dp3
S'lstem'
p4
I0
sS'rstem'
p5
I0
ssS'com.typemytype.robofont.layerData'
p6
(dp7
S'b'
(dp8
S'name'
p9
S'sterling'
p10
sS'lib'
p11
(dp12
sS'unicodes'
p13
(tsS'width'
p14
I1136
sS'contours'
p15
((dp16
S'points'
p17
((dp18
S'segmentType'
p19
S'line'
p20
sS'x'
I20
sS'smooth'
p21
I00
sS'y'
I0
s(dp22
g19
S'line'
p23
sS'x'
I8
sg21
I00
sS'y'
I115
s(dp24
g19
S'line'
p25
sS'x'
I180
sg21
I00
sS'y'
I132
s(dp26
g19
S'line'
p27
sS'x'
I180
sg21
I00
sS'y'
I683
s(dp28
g19
S'line'
p29
sS'x'
I8
sg21
I00
sS'y'
I683
s(dp30
g19
S'line'
p31
sS'x'
I8
sg21
I00
sS'y'
I806
s(dp32
g19
S'line'
p33
sS'x'
I180
sg21
I00
sS'y'
I806
s(dp34
g19
S'line'
p35
sS'x'
I180
sg21
I01
sS'y'
I920
s(dp36
S'y'
I1183
sS'x'
I180
sg21
I00
s(dp37
S'y'
I1476
sS'x'
I245
sg21
I00
s(dp38
g19
S'curve'
p39
sS'x'
I598
sg21
I01
sS'y'
I1476
s(dp40
S'y'
I1476
sS'x'
I742
sg21
I00
s(dp41
S'y'
I1421
sS'x'
I854
sg21
I00
s(dp42
g19
S'curve'
p43
sS'x'
I939
sg21
I00
sS'y'
I1347
s(dp44
g19
S'line'
p45
sS'x'
I871
sg21
I00
sS'y'
I1229
s(dp46
S'y'
I1297
sS'x'
I785
sg21
I00
s(dp47
S'y'
I1334
sS'x'
I700
sg21
I00
s(dp48
g19
S'curve'
p49
sS'x'
I598
sg21
I01
sS'y'
I1334
s(dp50
S'y'
I1334
sS'x'
I397
sg21
I00
s(dp51
S'y'
I1179
sS'x'
I356
sg21
I00
s(dp52
g19
S'curve'
p53
sS'x'
I356
sg21
I01
sS'y'
I949
s(dp54
g19
S'line'
p55
sS'x'
I356
sg21
I00
sS'y'
I806
s(dp56
g19
S'line'
p57
sS'x'
I739
sg21
I00
sS'y'
I806
s(dp58
g19
S'line'
p59
sS'x'
I739
sg21
I00
sS'y'
I683
s(dp60
g19
S'line'
p61
sS'x'
I356
sg21
I00
sS'y'
I683
s(dp62
g19
S'line'
p63
sS'x'
I356
sg21
I00
sS'y'
I134
s(dp64
g19
S'line'
p65
sS'x'
I953
sg21
I00
sS'y'
I134
s(dp66
g19
S'line'
p67
sS'x'
I940
sg21
I00
sS'y'
I0
stp68
stp69
sS'components'
p70
(tsS'anchors'
p71
(tsssS'org.robofab.postScriptHintData'
p72
(dp73
s."
LayerCount: 2
Fore
SplineSet
233 476 m 258
 233 589 274 643 351 643 c 256
 399 643 430 622 464 597 c 257
 473 597 l 257
 510 665 l 257
 481 692 425 731 333 731 c 256
 169 731 123 609 123 469 c 258
 123 402 l 257
 37 402 l 257
 37 331 l 257
 123 331 l 257
 123 80 l 257
 38 71 l 257
 43 0 l 257
 507 0 l 257
 512 81 l 257
 233 81 l 257
 233 331 l 257
 410 331 l 257
 410 402 l 257
 233 402 l 257
 233 476 l 258
EndSplineSet
EndChar

StartChar: t
Encoding: 84 116 348
Width: 399
VWidth: 0
GlyphClass: 2
Flags: HW
PickledData: "(dp1
S'org.pippin.gimp.org.kernagic'
p2
(dp3
S'lstem'
p4
I189
sS'rstem'
p5
I480
ssS'com.typemytype.robofont.layerData'
p6
(dp7
sS'com.fontlab.hintData'
p8
(dp9
S'vhints'
p10
((dp11
S'position'
p12
I244
sS'width'
p13
I122
s(dp14
g12
I286
sg13
I80
stp15
sS'hhints'
p16
((dp17
g12
I-11
sg13
I83
stp18
ssS'org.robofab.postScriptHintData'
p19
(dp20
s."
HStem: -5 41
VStem: 119 60 140 39
AnchorPoint: "top" 172 667 basechar 0
LayerCount: 2
Fore
SplineSet
291 -4 m 257
 351 -3 l 257
 355 69 l 257
 297 72 l 257
 222 74 215 92 215 170 c 258
 215 465 l 257
 355 465 l 257
 355 528 l 257
 215 528 l 257
 215 680 l 257
 125 673 l 257
 112 528 l 257
 29 523 l 257
 27 465 l 257
 109 465 l 257
 109 171 l 258
 109 43 133 -4 291 -4 c 257
EndSplineSet
EndChar

StartChar: thorn
Encoding: 189 254 353
Width: 581
VWidth: 0
GlyphClass: 2
Flags: HW
PickledData: "(dp1
S'org.pippin.gimp.org.kernagic'
p2
(dp3
S'lstem'
p4
I0
sS'rstem'
p5
I0
ssS'com.typemytype.robofont.layerData'
p6
(dp7
S'b'
(dp8
S'name'
p9
S'thorn'
p10
sS'lib'
p11
(dp12
sS'unicodes'
p13
(tsS'width'
p14
I1221
sS'contours'
p15
(tsS'components'
p16
(tsS'anchors'
p17
(tsssS'org.robofab.postScriptHintData'
p18
(dp19
s."
LayerCount: 2
Fore
SplineSet
62 189 m 257
 62 -222 l 257
 165 -222 l 257
 165 189 l 257
 62 189 l 257
EndSplineSet
Refer: 153 98 N 1 0 0 1 -15 0 2
EndChar

StartChar: three
Encoding: 19 51 354
Width: 606
VWidth: 0
GlyphClass: 2
Flags: HW
PickledData: "(dp1
S'org.pippin.gimp.org.kernagic'
p2
(dp3
S'lstem'
p4
I0
sS'rstem'
p5
I0
ssS'com.typemytype.robofont.layerData'
p6
(dp7
sS'org.robofab.postScriptHintData'
p8
(dp9
s."
LayerCount: 2
Fore
SplineSet
296 -10 m 256
 440 -10 532 73 532 191 c 256
 532 282 482 359 375 375 c 257
 472 394 512 458 512 532 c 256
 513 651 431 721 297 721 c 256
 220 721 119 693 73 604 c 257
 130 553 l 257
 140 553 l 257
 179 612 231 634 291 634 c 258
 294 634 l 258
 370 634 407 594 407 528 c 258
 407 524 l 258
 407 423 318 409 235 409 c 258
 196 409 l 257
 208 330 l 257
 235 330 l 258
 356 330 423 300 423 194 c 256
 423 115 368 77 292 77 c 256
 239 77 175 96 138 152 c 257
 130 152 l 257
 74 101 l 257
 115 29 206 -10 296 -10 c 256
EndSplineSet
EndChar

StartChar: threequarters
Encoding: 125 190 355
Width: 851
VWidth: 0
GlyphClass: 3
Flags: HW
PickledData: "(dp1
S'org.pippin.gimp.org.kernagic'
p2
(dp3
S'lstem'
p4
I0
sS'rstem'
p5
I0
ssS'com.typemytype.robofont.layerData'
p6
(dp7
sS'org.robofab.postScriptHintData'
p8
(dp9
s."
LayerCount: 2
Fore
SplineSet
587 149 m 257
 705 331 l 257
 705 149 l 257
 587 149 l 257
207 0 m 257
 284 0 l 257
 739 725 l 257
 664 725 l 257
 207 0 l 257
705 0 m 257
 773 0 l 257
 773 91 l 257
 829 91 l 257
 829 149 l 257
 773 149 l 257
 773 421 l 257
 700 421 l 257
 512 145 l 257
 512 91 l 257
 705 91 l 257
 705 0 l 257
176 288 m 256
 252 288 321 329 321 417 c 256
 321 464 293 504 243 518 c 257
 294 530 312 577 312 613 c 256
 312 688 251 721 183 721 c 256
 139 721 92 707 57 681 c 257
 83 631 l 257
 116 651 150 661 177 661 c 256
 216 661 242 642 242 604 c 256
 242 567 218 544 167 544 c 258
 118 544 l 257
 118 484 l 257
 167 485 l 257
 225 485 251 461 251 416 c 256
 251 368 217 348 175 348 c 256
 144 348 109 359 81 377 c 257
 57 324 l 257
 92 300 134 288 176 288 c 256
EndSplineSet
Ligature2: "fracDiagonalFractionslookup11 subtable" three slash four
EndChar

StartChar: tilde
Encoding: 405 732 356
Width: 481
VWidth: 0
GlyphClass: 4
Flags: HW
PickledData: "(dp1
S'org.robofab.postScriptHintData'
p2
(dp3
sS'com.typemytype.robofont.layerData'
p4
(dp5
sS'com.fontlab.hintData'
p6
(dp7
S'vhints'
p8
((dp9
S'position'
p10
I169
sS'width'
p11
I63
s(dp12
g10
I657
sg11
I67
stp13
sS'hhints'
p14
((dp15
g10
I1301
sg11
I88
s(dp16
g10
I1400
sg11
I79
stp17
ss."
HStem: 635 43 684 39
VStem: 83 31 321 33
AnchorPoint: "top" 241 522 mark 0
LayerCount: 2
Fore
SplineSet
82 628 m 257
 132 628 l 257
 137 663 149 677 167 677 c 256
 202 677 257 628 310 628 c 256
 361 628 388 673 388 737 c 257
 337 737 l 257
 332 706 322 696 307 696 c 256
 277 696 229 738 167 738 c 256
 110 738 82 694 82 628 c 257
EndSplineSet
EndChar

StartChar: trademark
Encoding: 463 8482 357
Width: 1060
VWidth: 0
GlyphClass: 2
Flags: HW
PickledData: "(dp1
S'org.robofab.postScriptHintData'
p2
(dp3
sS'com.typemytype.robofont.layerData'
p4
(dp5
S'b'
(dp6
S'name'
p7
S'trademark'
p8
sS'lib'
p9
(dp10
sS'unicodes'
p11
(tsS'width'
p12
I2216
sS'contours'
p13
(tsS'components'
p14
(tsS'anchors'
p15
(tsss."
LayerCount: 2
Fore
SplineSet
186 255 m 257
 264 255 l 257
 264 649 l 257
 410 649 l 257
 410 711 l 257
 40 711 l 257
 40 649 l 257
 186 649 l 257
 186 255 l 257
469 255 m 257
 539 255 l 257
 543 601 l 257
 685 306 l 257
 735 306 l 257
 877 598 l 257
 882 255 l 257
 952 255 l 257
 943 711 l 257
 864 711 l 257
 711 396 l 257
 558 711 l 257
 478 711 l 257
 469 255 l 257
EndSplineSet
EndChar

StartChar: two
Encoding: 18 50 358
Width: 626
VWidth: 0
GlyphClass: 2
Flags: HW
PickledData: "(dp1
S'org.pippin.gimp.org.kernagic'
p2
(dp3
S'lstem'
p4
I0
sS'rstem'
p5
I0
ssS'com.typemytype.robofont.layerData'
p6
(dp7
sS'org.robofab.postScriptHintData'
p8
(dp9
s."
LayerCount: 2
Fore
SplineSet
135 564 m 257
 173 607 236 635 297 635 c 256
 368 635 431 595 431 511 c 256
 431 441 403 407 339 345 c 258
 75 86 l 257
 92 0 l 257
 521 0 l 257
 525 83 l 257
 199 83 l 257
 402 277 l 258
 499 369 533 421 533 513 c 256
 533 643 436 721 299 721 c 256
 208 721 123 681 73 623 c 257
 125 564 l 257
 135 564 l 257
EndSplineSet
EndChar

StartChar: u
Encoding: 85 117 359
Width: 594
VWidth: 0
GlyphClass: 2
Flags: HW
PickledData: "(dp1
S'org.pippin.gimp.org.kernagic'
p2
(dp3
S'lstem'
p4
I0
sS'rstem'
p5
I0
ssS'com.typemytype.robofont.layerData'
p6
(dp7
sS'com.fontlab.hintData'
p8
(dp9
S'vhints'
p10
((dp11
S'position'
p12
I162
sS'width'
p13
I166
s(dp14
g12
I862
sg13
I166
stp15
sS'hhints'
p16
((dp17
g12
I-21
sg13
I126
stp18
ssS'org.robofab.postScriptHintData'
p19
(dp20
s."
HStem: -10 62
VStem: 79 81 421 81
AnchorPoint: "top" 303 529 basechar 0
LayerCount: 2
Fore
SplineSet
412 130 m 257
 392 105 355 64 280 64 c 256
 205 64 176 113 176 204 c 258
 176 528 l 257
 70 528 l 257
 70 198 l 258
 70 61 134 -10 258 -10 c 256
 337 -10 387 23 421 68 c 257
 426 0 l 257
 518 0 l 257
 518 528 l 257
 412 528 l 257
 412 130 l 257
EndSplineSet
EndChar

StartChar: underscore
Encoding: 63 95 367
Width: 451
VWidth: 0
GlyphClass: 2
Flags: HW
PickledData: "(dp1
S'org.pippin.gimp.org.kernagic'
p2
(dp3
S'lstem'
p4
I0
sS'rstem'
p5
I0
ssS'com.typemytype.robofont.layerData'
p6
(dp7
sS'org.robofab.postScriptHintData'
p8
(dp9
s."
LayerCount: 2
Fore
SplineSet
0 -131 m 257
 452 -131 l 257
 452 -61 l 257
 0 -61 l 257
 0 -131 l 257
EndSplineSet
EndChar

StartChar: uni00AD
Encoding: 108 173 369
Width: 447
VWidth: 0
GlyphClass: 2
Flags: HW
PickledData: "(dp1
S'org.robofab.postScriptHintData'
p2
(dp3
s."
LayerCount: 2
Fore
SplineSet
61 202 m 257
 385 202 l 257
 385 280 l 257
 61 280 l 257
 61 202 l 257
EndSplineSet
EndChar

StartChar: uni00B2
Encoding: 113 178 370
Width: 389
VWidth: 0
GlyphClass: 2
Flags: HW
PickledData: "(dp1
S'org.robofab.postScriptHintData'
p2
(dp3
sS'com.typemytype.robofont.layerData'
p4
(dp5
s."
LayerCount: 2
Fore
SplineSet
75 311 m 257
 330 311 l 257
 335 368 l 257
 175 368 l 257
 230 421 228 414 269 455 c 256
 311 498 336 544 336 600 c 256
 336 684 272 730 204 730 c 256
 141 730 92 709 60 666 c 257
 92 619 l 257
 117 651 154 669 199 669 c 256
 238 669 268 641 268 599 c 256
 268 573 243 536 216 503 c 257
 146 426 125 418 75 368 c 257
 75 311 l 257
EndSplineSet
EndChar

StartChar: uni00B3
Encoding: 114 179 371
Width: 428
VWidth: 0
GlyphClass: 2
Flags: HW
PickledData: "(dp1
S'org.robofab.postScriptHintData'
p2
(dp3
sS'com.typemytype.robofont.layerData'
p4
(dp5
s."
LayerCount: 2
Fore
SplineSet
212 302 m 256
 291 302 361 342 361 425 c 256
 361 477 329 517 283 527 c 257
 330 537 355 575 355 621 c 256
 355 699 294 729 224 729 c 256
 171 729 118 713 83 685 c 257
 108 640 l 257
 137 661 172 675 214 675 c 256
 258 675 292 657 292 615 c 256
 292 577 271 551 209 551 c 258
 153 551 l 257
 153 499 l 257
 209 500 l 257
 210 500 l 258
 268 500 298 469 298 427 c 256
 298 380 259 356 211 356 c 256
 167 356 130 371 106 393 c 257
 80 343 l 257
 114 316 163 302 212 302 c 256
EndSplineSet
EndChar

StartChar: uni00B9
Encoding: 120 185 373
Width: 428
VWidth: 0
GlyphClass: 2
Flags: HW
PickledData: "(dp1
S'org.robofab.postScriptHintData'
p2
(dp3
sS'com.typemytype.robofont.layerData'
p4
(dp5
s."
LayerCount: 2
Fore
SplineSet
125 300 m 257
 359 300 l 257
 359 361 l 257
 281 361 l 257
 281 723 l 257
 222 723 l 257
 205 710 147 680 121 670 c 257
 121 609 l 257
 134 611 187 636 205 646 c 257
 205 361 l 257
 125 361 l 257
 125 300 l 257
EndSplineSet
EndChar

StartChar: uni02C9
Encoding: 400 713 442
Width: 292
VWidth: 0
GlyphClass: 4
Flags: HW
PickledData: "(dp1
S'org.robofab.postScriptHintData'
p2
(dp3
s."
AnchorPoint: "top" 148 522 mark 0
LayerCount: 2
Fore
SplineSet
-10 646 m 257
 299 646 l 257
 299 715 l 257
 -10 715 l 257
 -10 646 l 257
EndSplineSet
EndChar

StartChar: uni0307
Encoding: 407 775 443
Width: 232
VWidth: 0
GlyphClass: 4
Flags: HW
PickledData: "(dp1
S'org.robofab.postScriptHintData'
p2
(dp3
sS'com.typemytype.robofont.layerData'
p4
(dp5
s."
LayerCount: 2
Fore
SplineSet
187 709 m 256
 187 749 162 773 119 773 c 256
 76 773 50 749 50 709 c 256
 50 668 76 644 119 644 c 256
 162 644 187 668 187 709 c 256
EndSplineSet
EndChar

StartChar: uni2074
Encoding: 460 8308 462
Width: 341
VWidth: 0
GlyphClass: 2
Flags: HW
PickledData: "(dp1
S'org.robofab.postScriptHintData'
p2
(dp3
sS'com.typemytype.robofont.layerData'
p4
(dp5
s."
LayerCount: 2
Fore
SplineSet
87 451 m 257
 194 638 l 257
 194 451 l 257
 87 451 l 257
193 300 m 257
 259 300 l 257
 259 398 l 257
 313 398 l 257
 317 451 l 257
 260 451 l 257
 260 724 l 257
 189 724 l 257
 17 455 l 257
 17 398 l 257
 193 398 l 257
 193 300 l 257
EndSplineSet
EndChar

StartChar: uni2113
Encoding: 462 8467 463
Width: 608
VWidth: 0
Flags: HW
PickledData: "(dp1
S'org.robofab.postScriptHintData'
p2
(dp3
s."
LayerCount: 2
Fore
SplineSet
147 133 m 256
 147 33 199 -10 278 -10 c 256
 394 -10 470 48 470 48 c 257
 458 116 l 257
 409 91 365 75 326 75 c 256
 284 75 264 95 264 139 c 256
 264 157 267 179 273 204 c 258
 299 310 l 257
 455 433 l 258
 555 512 604 609 604 688 c 256
 604 767 554 826 455 826 c 256
 385 826 313 792 283 682 c 258
 184 315 l 257
 38 206 l 257
 61 163 l 257
 162 236 l 257
 152 196 147 162 147 133 c 256
322 404 m 257
 379 641 l 257
 395 709 420 739 466 739 c 256
 508 739 530 713 530 673 c 256
 530 622 494 549 417 485 c 257
 322 404 l 257
EndSplineSet
EndChar

StartChar: Delta
Encoding: 468 8710 465
Width: 631
VWidth: 0
Flags: HW
PickledData: "(dp1
S'org.pippin.gimp.org.kernagic'
p2
(dp3
S'lstem'
p4
I0
sS'rstem'
p5
I0
ssS'com.typemytype.robofont.layerData'
p6
(dp7
S'b'
(dp8
S'name'
p9
S'uni2206'
p10
sS'lib'
p11
(dp12
sS'unicodes'
p13
(tsS'width'
p14
I1278
sS'contours'
p15
(tsS'components'
p16
(tsS'anchors'
p17
(tsssS'org.robofab.postScriptHintData'
p18
(dp19
s."
LayerCount: 2
Fore
SplineSet
331 587 m 257
 503 85 l 257
 129 85 l 257
 298 587 l 257
 314 646 l 257
 331 587 l 257
271 757 m 257
 33 42 l 257
 33 0 l 257
 600 0 l 257
 600 42 l 257
 362 757 l 257
 271 757 l 257
EndSplineSet
EndChar

StartChar: v
Encoding: 86 118 476
Width: 529
VWidth: 0
GlyphClass: 2
Flags: HW
PickledData: "(dp1
S'org.pippin.gimp.org.kernagic'
p2
(dp3
S'lstem'
p4
I0
sS'rstem'
p5
I0
ssS'com.typemytype.robofont.guides'
p6
((dp7
S'y'
I552
sS'x'
I438
sS'magnetic'
p8
I5
sS'angle'
p9
I0
sS'isGlobal'
p10
I00
stp11
sS'com.typemytype.robofont.layerData'
p12
(dp13
sS'org.robofab.postScriptHintData'
p14
(dp15
s."
LayerCount: 2
Fore
SplineSet
214 0 m 257
 321 0 l 257
 507 528 l 257
 400 528 l 257
 357 392 313 256 270 119 c 257
 224 255 178 391 133 528 c 257
 24 528 l 257
 214 0 l 257
EndSplineSet
EndChar

StartChar: w
Encoding: 87 119 477
Width: 738
VWidth: 0
GlyphClass: 2
Flags: HW
PickledData: "(dp1
S'org.pippin.gimp.org.kernagic'
p2
(dp3
S'lstem'
p4
I0
sS'rstem'
p5
I0
ssS'com.typemytype.robofont.layerData'
p6
(dp7
sS'org.robofab.postScriptHintData'
p8
(dp9
s."
AnchorPoint: "top" 373 528 basechar 0
LayerCount: 2
Fore
SplineSet
374 427 m 257
 497 -1 l 257
 593 -1 l 257
 729 528 l 257
 634 528 l 257
 543 124 l 257
 425 528 l 257
 319 528 l 257
 204 124 l 257
 109 528 l 257
 10 528 l 257
 150 -1 l 257
 245 -1 l 257
 374 427 l 257
EndSplineSet
EndChar

StartChar: x
Encoding: 88 120 482
Width: 520
VWidth: 0
GlyphClass: 2
Flags: HW
PickledData: "(dp1
S'org.pippin.gimp.org.kernagic'
p2
(dp3
S'lstem'
p4
I0
sS'rstem'
p5
I0
ssS'com.typemytype.robofont.layerData'
p6
(dp7
sS'com.fontlab.hintData'
p8
(dp9
S'hhints'
p10
((dp11
S'position'
p12
I0
sS'width'
p13
I22
s(dp14
g12
I1034
sg13
I21
stp15
ssS'org.robofab.postScriptHintData'
p16
(dp17
s."
HStem: 0 11 505 10
LayerCount: 2
Fore
SplineSet
320 268 m 257
 496 528 l 257
 392 528 l 257
 269 344 l 257
 146 528 l 257
 30 528 l 257
 205 267 l 257
 20 -1 l 257
 125 -1 l 257
 255 191 l 257
 383 -1 l 257
 500 -1 l 257
 320 268 l 257
EndSplineSet
EndChar

StartChar: y
Encoding: 89 121 483
Width: 552
VWidth: 0
GlyphClass: 2
Flags: HW
PickledData: "(dp1
S'org.pippin.gimp.org.kernagic'
p2
(dp3
S'lstem'
p4
I0
sS'rstem'
p5
I0
ssS'com.typemytype.robofont.layerData'
p6
(dp7
sS'org.robofab.postScriptHintData'
p8
(dp9
s."
AnchorPoint: "top" 281 528 basechar 0
LayerCount: 2
Fore
SplineSet
536 528 m 257
 435 528 l 257
 283 142 l 257
 121 528 l 257
 13 528 l 257
 230 32 l 257
 146 -179 l 257
 235 -206 l 257
 536 528 l 257
EndSplineSet
EndChar

StartChar: yen
Encoding: 100 165 487
Width: 664
VWidth: 0
GlyphClass: 2
Flags: HW
PickledData: "(dp1
S'org.pippin.gimp.org.kernagic'
p2
(dp3
S'lstem'
p4
I0
sS'rstem'
p5
I0
ssS'com.typemytype.robofont.layerData'
p6
(dp7
S'b'
(dp8
S'name'
p9
S'yen'
p10
sS'lib'
p11
(dp12
sS'unicodes'
p13
(tsS'width'
p14
I1366
sS'contours'
p15
(tsS'components'
p16
(tsS'anchors'
p17
(tsssS'org.robofab.postScriptHintData'
p18
(dp19
s."
LayerCount: 2
Fore
SplineSet
119 251 m 257
 533 251 l 257
 533 308 l 257
 119 308 l 257
 119 251 l 257
119 124 m 257
 533 124 l 257
 533 180 l 257
 119 180 l 257
 119 124 l 257
EndSplineSet
Refer: 122 89 N 1 0 0 1 0 0 2
EndChar

StartChar: z
Encoding: 90 122 489
Width: 488
VWidth: 0
GlyphClass: 2
Flags: HW
PickledData: "(dp1
S'org.pippin.gimp.org.kernagic'
p2
(dp3
S'lstem'
p4
I0
sS'rstem'
p5
I0
ssS'com.typemytype.robofont.layerData'
p6
(dp7
sS'org.robofab.postScriptHintData'
p8
(dp9
s."
AnchorPoint: "top" 246 528 basechar 0
LayerCount: 2
Fore
SplineSet
54 528 m 257
 56 457 l 257
 323 457 l 257
 46 62 l 257
 46 0 l 257
 441 0 l 257
 439 75 l 257
 165 75 l 257
 435 461 l 257
 435 528 l 257
 54 528 l 257
EndSplineSet
EndChar

StartChar: zero
Encoding: 16 48 493
Width: 626
VWidth: 0
GlyphClass: 2
Flags: HW
PickledData: "(dp1
S'org.pippin.gimp.org.kernagic'
p2
(dp3
S'lstem'
p4
I0
sS'rstem'
p5
I0
ssS'com.typemytype.robofont.layerData'
p6
(dp7
S'b'
(dp8
S'name'
p9
S'zero'
p10
sS'lib'
p11
(dp12
sS'unicodes'
p13
(tsS'width'
p14
I1248
sS'contours'
p15
(tsS'components'
p16
(tsS'anchors'
p17
(tsssS'org.robofab.postScriptHintData'
p18
(dp19
s."
LayerCount: 2
Fore
SplineSet
315 -10 m 256
 487 -10 568 128 568 347 c 256
 568 574 481 721 315 721 c 256
 148 721 59 574 59 347 c 256
 59 128 143 -10 315 -10 c 256
315 77 m 256
 226 77 171 158 171 349 c 256
 171 532 226 634 315 634 c 256
 404 634 456 542 456 349 c 256
 456 158 404 77 315 77 c 256
EndSplineSet
EndChar

StartChar: Sigma
Encoding: 414 931 495
Width: 532
VWidth: 0
GlyphClass: 2
Flags: HW
LayerCount: 2
Fore
SplineSet
41 711 m 257
 41 647 l 257
 278 299 l 257
 32 -43 l 257
 32 -104 l 257
 516 -104 l 257
 516 -15 l 257
 163 -15 l 257
 396 299 l 257
 178 625 l 257
 495 625 l 257
 495 711 l 257
 41 711 l 257
EndSplineSet
EndChar

StartChar: uni03BC
Encoding: 416 956 496
Width: 588
VWidth: 0
GlyphClass: 2
Flags: HW
LayerCount: 2
Fore
SplineSet
412 130 m 1
 392 105 355 64 280 64 c 0
 205 64 176 113 176 204 c 0
 176 528 l 1
 70 528 l 1
 70 -145 l 1
 176 -145 l 1
 176 4 l 1
 200 -5 227 -10 258 -10 c 0
 337 -10 387 23 421 68 c 1
 426 0 l 1
 518 0 l 1
 518 528 l 1
 412 528 l 1
 412 130 l 1
EndSplineSet
EndChar

StartChar: emptyset
Encoding: 467 8709 497
Width: 819
VWidth: 0
GlyphClass: 2
Flags: HW
LayerCount: 2
Fore
SplineSet
45 358 m 0
 45 567 218 729 406 729 c 0
 490 729 572 697 636 642 c 1
 722 738 l 1
 755 712 l 1
 666 613 l 1
 728 547 768 458 768 358 c 0
 768 149 594 -13 406 -13 c 0
 324 -13 244 18 181 70 c 1
 87 -35 l 1
 57 -8 l 1
 151 98 l 1
 86 165 45 256 45 358 c 0
208 101 m 1
 265 55 334 28 406 28 c 0
 572 28 727 172 727 358 c 0
 727 446 693 524 639 582 c 1
 208 101 l 1
178 129 m 1
 609 611 l 1
 552 659 480 688 406 688 c 0
 240 688 85 544 85 358 c 0
 85 268 121 188 178 129 c 1
EndSplineSet
EndChar

StartChar: uni03A9
Encoding: 415 937 498
Width: 782
VWidth: 0
GlyphClass: 2
Flags: HW
LayerCount: 2
Fore
SplineSet
60 0 m 257
 53 57 l 257
 229 57 l 257
 131 125 60 236 60 377 c 256
 60 577 204 707 398 707 c 256
 599 707 726 564 726 376 c 256
 726 232 640 123 554 57 c 257
 728 57 l 257
 722 0 l 257
 475 0 l 257
 474 54 l 257
 575 121 649 231 649 367 c 256
 649 516 564 644 396 644 c 256
 243 644 136 534 136 369 c 256
 136 234 206 121 310 54 c 257
 310 0 l 257
 60 0 l 257
EndSplineSet
EndChar

StartChar: uni0358
Encoding: 412 856 499
Width: 232
VWidth: 0
GlyphClass: 4
Flags: HW
LayerCount: 2
Fore
SplineSet
187 709 m 256
 187 749 162 773 119 773 c 256
 76 773 50 749 50 709 c 256
 50 668 76 644 119 644 c 256
 162 644 187 668 187 709 c 256
EndSplineSet
EndChar

StartChar: uni0259
Encoding: 397 601 500
Width: 560
VWidth: 0
Flags: HW
HStem: 493 46 5 45
LayerCount: 2
Fore
SplineSet
410 224 m 261
 402 123 347 65 268 65 c 260
 189 65 152 121 151 224 c 261
 410 224 l 261
65 289 m 261
 65 289 61 253 61 233 c 260
 61 85 134 -10 272 -10 c 260
 411 -10 520 93 520 267 c 260
 520 436 409 540 260 540 c 260
 182 540 117 517 74 485 c 261
 98 420 l 261
 104 420 l 261
 147 445 188 464 247 464 c 260
 337 464 404 411 412 289 c 261
 65 289 l 261
EndSplineSet
EndChar
